<svg xmlns="http://www.w3.org/2000/svg" width="130" height="200" viewBox="0 0 130 200"><defs><style>.cls-1{fill:#96969a;}.cls-2{fill:#89898d;}.cls-3,.cls-6{fill:none;}.cls-3{stroke:#747475;stroke-linecap:round;}.cls-10,.cls-3,.cls-6{stroke-miterlimit:10;stroke-width:2px;}.cls-4{fill:#535363;}.cls-5{fill:#75757f;}.cls-10,.cls-6{stroke:#000;}.cls-7{fill:#505054;}.cls-8{fill:#646466;}.cls-9{fill:#fff;}</style></defs><title>hund scene</title><g id="Layer_2" data-name="Layer 2"><ellipse class="cls-1" cx="65.31" cy="135.09" rx="39.63" ry="42.15"/><ellipse class="cls-2" cx="66.26" cy="94.84" rx="17.3" ry="20.76"/><path class="cls-1" d="M65.31,3.62S50.22,4.88,46.44,15c0,0-32.71-27.68-40.88,20.13,0,0-3.15,14.46,12,12a15.47,15.47,0,0,0,8.18-3.15S-.11,86,24.43,106.16c0,0,22.64,22,28.93-18.24,0,0,6.29-13.84,12-11.33"/><path class="cls-3" d="M65.31,101.75s-7.54,0-12.89-8.78"/><path class="cls-3" d="M39.52,26.9S30.1,34.55,25.06,44.51"/><path class="cls-4" d="M33.32,109.3s-12,12-12,26.17c0,0,7.55,16.06-10.69,45.08,0,0,6.92,17.91,25.16,2.47,0,0-5-6.79,4.4-18.52,0,0,3.78-13-4.4-27.79,0,0,1.89-5.56-3.15-21Z"/><path class="cls-5" d="M62.8,135.09a61.52,61.52,0,0,0-10.07,29.57s9.44,4.4,7.55,19.5c0,0-13.84,28.31-30.19-1.26"/><line class="cls-6" x1="50.22" y1="21.24" x2="61.54" y2="31.3"/><path class="cls-3" d="M42,72.82S54,50.17,65.31,52.69"/><path class="cls-7" d="M64.06,71.56a7.55,7.55,0,0,1,0-15.1"/><path class="cls-1" d="M64.69,3.62S79.78,4.88,83.56,15c0,0,32.71-27.68,40.88,20.13,0,0,3.15,14.46-12,12a15.47,15.47,0,0,1-8.18-3.15s25.8,42.15,1.26,62.28c0,0-22.64,22-28.93-18.24,0,0-6.29-13.84-12-11.33"/><path class="cls-3" d="M65.31,101.75s7.55,0,12.9-8.78"/><path class="cls-3" d="M91.11,26.9s8.6,7.38,13.2,17"/><path class="cls-4" d="M96.68,109.3s12,12,12,26.17c0,0-7.55,16.06,10.69,45.08,0,0-6.92,17.91-25.16,2.47,0,0,5-6.79-4.4-18.52,0,0-3.78-13,4.4-27.79,0,0-1.89-5.56,3.15-21Z"/><path class="cls-5" d="M67.2,135.09a61.52,61.52,0,0,1,10.07,29.57s-9.44,4.4-7.55,19.5c0,0,13.84,28.31,30.19-1.26"/><line class="cls-6" x1="80.41" y1="21.24" x2="69.09" y2="31.3"/><path class="cls-3" d="M88,72.82S76,50.17,64.69,52.69"/><circle class="cls-8" cx="84.19" cy="46.4" r="10.69"/><path class="cls-7" d="M63.43,71.56a7.55,7.55,0,0,0,0-15.1"/><path class="cls-9" d="M80.41,45.77a5.83,5.83,0,0,1,6-5.66c3.3,0,7.86,3.16,7.86,6.29"/><ellipse class="cls-10" cx="83.24" cy="49.54" rx="4.09" ry="5.66"/><path class="cls-9" d="M81,48.29a2.52,2.52,0,1,1,5,0"/><circle class="cls-9" cx="81.98" cy="51.12" r="0.94"/><circle class="cls-8" cx="48.96" cy="45.77" r="10.69"/><path class="cls-9" d="M52.73,45.14a5.82,5.82,0,0,0-6-5.66c-3.3,0-7.87,3.16-7.87,6.29"/><ellipse class="cls-10" cx="49.9" cy="48.92" rx="4.09" ry="5.66"/><path class="cls-9" d="M52.1,47.66a2.52,2.52,0,1,0-5,0"/><circle class="cls-9" cx="51.16" cy="50.49" r="0.94"/></g></svg>