<svg xmlns="http://www.w3.org/2000/svg" width="840" height="500" viewBox="0 0 840 500"><defs><style>.cls-1{fill:#8254cc;}.cls-2{fill:none;stroke:#ddcef2;stroke-miterlimit:10;}.cls-3{fill:#ddcef2;}.cls-4{fill:#fff;}.cls-5{fill:#020202;}.cls-6{fill:#e4b4ef;}</style></defs><title>kat titelskærm</title><g id="Layer_2" data-name="Layer 2"><ellipse class="cls-1" cx="353.2" cy="294.48" rx="86.72" ry="202.36"/><path class="cls-1" d="M353.2,94.75s-49.06-10.51-84.1,10.51c0,0-64.82-108.62-194.47-101.61,0,0-59.57,133.15,0,236.52l50.81-61.32A502.55,502.55,0,0,0,74.62,246.6c-18.06,29.09-34.52,63.59-36.78,95.18,0,0,119.13,143.67,282.07,131.4"/><path class="cls-2" d="M307.65,326S262.09,203.37,186.76,220.89,76.38,326,307.65,326Z"/><path class="cls-2" d="M263.85,368.06s-26.28,56.07,43.8,54.31c0,0,40.29,3.51,45.55-43.8"/><path class="cls-2" d="M295.38,378.57S11.56,392.59-.71,411.86"/><path class="cls-2" d="M195.52,149.06S148.21,24.67,74.63,3.65"/><path class="cls-1" d="M340.93,94.75S390,84.24,425,105.26c0,0,64.82-108.62,194.47-101.61,0,0,59.57,133.15,0,236.52l-50.81-61.32a502.55,502.55,0,0,1,50.82,67.75c18.06,29.09,34.53,63.59,36.78,95.18,0,0-119.13,143.67-282.07,131.4"/><path class="cls-2" d="M443,368.06s26.28,56.07-43.8,54.31c0,0-40.3,3.51-45.55-43.8"/><path class="cls-2" d="M414.52,378.57s283.82,14,296.08,33.29"/><path class="cls-2" d="M389.18,326s45.56-122.64,120.89-105.12S620.45,326,389.18,326Z"/><path class="cls-2" d="M507.37,149.06S554.68,24.67,628.26,3.65"/><ellipse class="cls-1" cx="94.78" cy="226.15" rx="24.53" ry="32.41" transform="translate(-46.37 25.64) rotate(-12.41)"/><ellipse class="cls-1" cx="604.92" cy="217.78" rx="20.37" ry="28.3" transform="translate(-32.66 135.04) rotate(-12.41)"/><path class="cls-3" d="M308.52,326s-33.22-89.44-88.17-76.67S139.85,326,308.52,326Z"/><path class="cls-3" d="M389.11,326s33.23-89.44,88.17-76.67S557.79,326,389.11,326Z"/><path class="cls-4" d="M511.87,283.39c0-18.55-19.47-33.59-43.49-33.59s-43.5,15-43.5,33.59"/><ellipse class="cls-5" cx="431.67" cy="302.42" rx="28.55" ry="24.47"/><path class="cls-4" d="M452.06,297s-10-19.37-29.9-9.69"/><path class="cls-6" d="M390.85,381.38l-71.62-3.26a5.92,5.92,0,0,1-4.83-8.93l34.3-58a5.93,5.93,0,0,1,10.16-.07l37.32,61.23A5.93,5.93,0,0,1,390.85,381.38Z"/><path class="cls-4" d="M185.88,283.39c0-18.55,19.48-33.59,43.5-33.59s43.5,15,43.5,33.59"/><ellipse class="cls-5" cx="266.08" cy="302.42" rx="28.55" ry="24.47"/><path class="cls-4" d="M245.69,297s10-19.37,29.91-9.69"/><circle class="cls-4" cx="248.95" cy="304.11" r="3.5"/><circle class="cls-4" cx="453.94" cy="304.11" r="3.5"/><path class="cls-2" d="M169.24,164.83s-49.06,17.52-71.83,57.82"/><path class="cls-2" d="M537.16,164.83s49.05,17.52,71.83,57.82"/><path class="cls-2" d="M293.63,396.09S20.32,446.9,2.8,473.18"/><path class="cls-2" d="M411,396.09s273.31,50.81,290.83,77.09"/><path class="cls-6" d="M389.11,423.25c0,36.77-17.65,66.58-39.42,66.58S310.27,460,310.27,423.25"/></g></svg>