<svg xmlns="http://www.w3.org/2000/svg" width="140" height="200" viewBox="0 0 140 200"><defs><style>.cls-1{fill:#75757f;}.cls-2{fill:#96969a;}.cls-3,.cls-4{fill:none;stroke-miterlimit:10;}.cls-3{stroke:#fff;}.cls-4{stroke:#000;}.cls-5{fill:#535363;}.cls-6{fill:#646466;}.cls-7{fill:#fff;}</style></defs><title>mus scene</title><g id="Layer_2" data-name="Layer 2"><rect class="cls-1" x="84.55" y="152.42" width="24" height="25.8"/><rect class="cls-1" x="32.95" y="152.42" width="24" height="25.8"/><rect class="cls-2" x="58.75" y="158.42" width="24" height="19.2"/><rect class="cls-2" x="50.35" y="124.82" width="40.2" height="41.4"/><ellipse class="cls-2" cx="80.35" cy="128.42" rx="8.4" ry="14.4"/><ellipse class="cls-2" cx="62.35" cy="122.72" rx="8.4" ry="13.5"/><rect class="cls-2" x="58.15" y="36.02" width="24" height="81"/><path class="cls-2" d="M69.85,36h10.8s.6-39,30.6-24c0,0,58.5,24.9-5.7,60.9,0,0-13.8,39.6-23.4,45"/><path d="M70.15,105.92a12.3,12.3,0,0,0,0,24.6"/><path class="cls-2" d="M70.15,36H59.35s-.6-39-30.6-24c0,0-58.5,24.9,5.7,60.9,0,0,13.8,39.6,23.4,45"/><path class="cls-3" d="M52.45,38.12s-16.2,3.6-19.2,27.6"/><path class="cls-4" d="M21.25,101.72s21,12.6,33,6"/><path class="cls-4" d="M25.45,113.12s19.2,4.2,28.8-1.8"/><path class="cls-4" d="M27.85,124.52s22.2-3.6,28.2-11.4"/><line class="cls-3" x1="70.45" y1="140.12" x2="70.45" y2="178.22"/><circle class="cls-1" cx="57.25" cy="178.52" r="12.9"/><path class="cls-2" d="M50.35,167.62s-9.6-12.2-8.4-25.4c0,0,.1-18.79,13.4-26.35"/><path class="cls-5" d="M44.65,178.52s-9.6,1.8-12.6,3.6c-10.59,6.35-28.8,5.4-28.8,5.4,5.4-24.6,24-18,24-18"/><path class="cls-1" d="M42.93,152.42c-10.88-5.1-13.28-9.9-20.48,7.5l9,18.6"/><path d="M69.85,105.92a12.3,12.3,0,1,1,0,24.6"/><path class="cls-3" d="M87.55,38.12s16.2,3.6,19.2,27.6"/><path class="cls-4" d="M118.75,101.72s-21,12.6-33,6"/><path class="cls-4" d="M114.55,113.12s-19.2,4.2-28.8-1.8"/><path class="cls-4" d="M112.15,124.52S90,120.92,84,113.12"/><circle class="cls-1" cx="83.65" cy="178.52" r="12.9"/><path class="cls-2" d="M89.65,167.62s9.6-12.2,8.4-25.4c0,0-.1-18.79-13.4-26.35"/><path class="cls-5" d="M95.35,178.52s9.6,1.8,12.6,3.6c10.59,6.35,28.8,5.4,28.8,5.4-5.4-24.6-24-18-24-18"/><path class="cls-1" d="M97.07,152.42c10.88-5.1,13.28-9.9,20.48,7.5l-9,18.6"/><ellipse class="cls-6" cx="57.55" cy="64.22" rx="12" ry="19.2"/><ellipse cx="57.85" cy="72.92" rx="7.5" ry="10.5"/><ellipse class="cls-6" cx="82.15" cy="64.22" rx="12" ry="19.2"/><ellipse cx="82.15" cy="72.92" rx="7.5" ry="10.5"/><ellipse class="cls-7" cx="58.45" cy="77.72" rx="3.3" ry="5.1"/><ellipse class="cls-7" cx="81.85" cy="77.72" rx="3.3" ry="5.1"/><ellipse class="cls-7" cx="55.45" cy="71.42" rx="1.5" ry="1.8"/><ellipse class="cls-7" cx="84.85" cy="71.42" rx="1.5" ry="1.8"/></g></svg>