<svg xmlns="http://www.w3.org/2000/svg" xmlns:xlink="http://www.w3.org/1999/xlink" width="180" height="180" viewBox="0 0 180 180"><defs><style>.cls-1{fill:none;}.cls-2{isolation:isolate;}.cls-3{clip-path:url(#clip-path);}.cls-4{fill:#442c6a;}.cls-5{fill:#442c6b;}.cls-6{clip-path:url(#clip-path-2);}.cls-7{clip-path:url(#clip-path-3);}.cls-8{fill:#a3a3a3;}.cls-9{clip-path:url(#clip-path-4);}.cls-10{fill:#533683;}.cls-11{fill:#51347e;}.cls-12{fill:#4e327a;}.cls-13{fill:#4b3176;}.cls-14{fill:#492f72;}.cls-15{fill:#462d6e;}.cls-16{clip-path:url(#clip-path-5);}.cls-17{fill:#858585;}.cls-18{fill:#9f9f9f;}.cls-19{clip-path:url(#clip-path-6);}.cls-20{fill:#949494;}.cls-21{fill:#999;}.cls-22{fill:#9e9e9e;}.cls-23{fill:gray;}.cls-24{clip-path:url(#clip-path-7);}.cls-25{fill:#8a8a8a;}.cls-26{fill:#8f8f8f;}.cls-27{fill:#e0e0e0;}.cls-28{clip-path:url(#clip-path-8);}.cls-29{clip-path:url(#clip-path-9);}.cls-30{fill:#724ab3;}</style><clipPath id="clip-path"><path class="cls-1" d="M119.16,105.54A19.8,19.8,0,0,0,125.69,98l6.41,4.2a19.77,19.77,0,0,1-6.53,7.51Z"/></clipPath><clipPath id="clip-path-2"><path class="cls-1" d="M125.69,98A19.56,19.56,0,0,0,119,73l6.41,4.2a19.56,19.56,0,0,1,6.66,25.06Z"/></clipPath><clipPath id="clip-path-3"><path class="cls-1" d="M119,73l6.41,4.19-.5-.31-6.41-4.2Z"/></clipPath><clipPath id="clip-path-4"><path class="cls-1" d="M74.62,130.22,68.21,126A19.28,19.28,0,0,0,90,125.7l6.41,4.2a19.33,19.33,0,0,1-21.77.32Z"/></clipPath><clipPath id="clip-path-5"><path class="cls-1" d="M74.62,130.22,68.21,126a19.14,19.14,0,0,1-8.7-15.85l6.41,4.2A19.16,19.16,0,0,0,74.62,130.22Z"/></clipPath><clipPath id="clip-path-6"><path class="cls-1" d="M84.37,55.61,78,51.41a19.09,19.09,0,0,1,10.63,2.87L95,58.48A19,19,0,0,0,84.37,55.61Z"/></clipPath><clipPath id="clip-path-7"><path class="cls-1" d="M65.17,75.86l-6.41-4.2A19.88,19.88,0,0,1,78,51.41l6.41,4.2A19.88,19.88,0,0,0,65.17,75.86Z"/></clipPath><clipPath id="clip-path-8"><path class="cls-1" d="M131.47,19.53l6.41,4.19a79.73,79.73,0,0,0-46.26-13L85.21,6.56A79.58,79.58,0,0,1,131.47,19.53Z"/></clipPath><clipPath id="clip-path-9"><path class="cls-1" d="M48.53,160.47l-6.41-4.19a80.34,80.34,0,0,1-36.3-65.9C4.94,45.46,40.48,7.92,85.21,6.56l6.41,4.19c-44.73,1.37-80.27,38.9-79.39,83.83A80.32,80.32,0,0,0,48.53,160.47Z"/></clipPath></defs><title>play knap</title><g id="Layer_2" data-name="Layer 2"><g class="cls-2"><g class="cls-2"><g class="cls-3"><g class="cls-2"><path class="cls-4" d="M125.57,109.73l-6.41-4.19c11.54-8,11.38-25-.14-32.58l6.41,4.2c11.52,7.53,11.68,24.6.14,32.57"/></g></g></g><polygon class="cls-5" points="96.39 129.9 89.98 125.7 119.16 105.54 125.57 109.73 96.39 129.9"/><g class="cls-2"><g class="cls-6"><g class="cls-2"><path class="cls-4" d="M125.57,109.73l-6.41-4.19c11.54-8,11.38-25-.14-32.58l6.41,4.2c11.52,7.53,11.68,24.6.14,32.57"/></g></g></g><g class="cls-2"><g class="cls-7"><g class="cls-2"><path class="cls-8" d="M124.93,76.84l-6.41-4.2.5.32,6.41,4.19-.5-.31"/></g></g></g><g class="cls-2"><g class="cls-9"><g class="cls-2"><path class="cls-10" d="M74.62,130.22,68.21,126c.54.35,1.09.68,1.65,1l6.41,4.2c-.56-.29-1.11-.62-1.65-1"/><path class="cls-11" d="M76.27,131.19,69.86,127a19.49,19.49,0,0,0,5.86,2l6.41,4.2a19.49,19.49,0,0,1-5.86-2"/><path class="cls-12" d="M82.13,133.16,75.72,129a19.26,19.26,0,0,0,3.65.26l6.41,4.2a19.26,19.26,0,0,1-3.65-.26"/><path class="cls-13" d="M85.78,133.42l-6.41-4.2h.1a18.51,18.51,0,0,0,3-.35l6.41,4.2a18.49,18.49,0,0,1-3.05.34h-.1"/><path class="cls-14" d="M88.93,133.07l-6.41-4.2a19.26,19.26,0,0,0,3.09-.87L92,132.2a19.26,19.26,0,0,1-3.09.87"/><path class="cls-15" d="M92,132.2,85.61,128A20.9,20.9,0,0,0,89,126.32l6.41,4.19A20.19,20.19,0,0,1,92,132.2"/><path class="cls-4" d="M95.45,130.51,89,126.32c.32-.2.63-.4.94-.62l6.41,4.2c-.31.22-.62.42-.94.61"/></g></g></g><g class="cls-2"><g class="cls-16"><g class="cls-2"><path class="cls-17" d="M74.62,130.22,68.21,126a19.14,19.14,0,0,1-8.7-15.85l6.41,4.2a19.16,19.16,0,0,0,8.7,15.85"/></g></g></g><polygon class="cls-18" points="95 58.48 88.59 54.28 118.52 72.64 124.93 76.83 95 58.48"/><g class="cls-2"><g class="cls-19"><g class="cls-2"><path class="cls-20" d="M84.37,55.61,78,51.41h.1l6.41,4.2h-.1"/><path class="cls-21" d="M84.47,55.61l-6.41-4.2a18.76,18.76,0,0,1,3.57.25L88,55.85a19.54,19.54,0,0,0-3.57-.24"/><path class="cls-22" d="M88,55.85l-6.41-4.19a19.12,19.12,0,0,1,5.68,1.9l6.41,4.2A19.14,19.14,0,0,0,88,55.85"/><path class="cls-8" d="M93.72,57.76l-6.41-4.2c.43.22.86.46,1.28.72L95,58.48c-.42-.26-.85-.5-1.28-.72"/></g></g></g><polygon class="cls-23" points="65.92 114.36 59.51 110.17 58.76 71.66 65.17 75.86 65.92 114.36"/><g class="cls-2"><g class="cls-24"><g class="cls-2"><path class="cls-17" d="M65.17,75.86l-6.41-4.2a19.66,19.66,0,0,1,9.45-17.29l6.41,4.19a19.68,19.68,0,0,0-9.45,17.3"/><path class="cls-25" d="M74.62,58.56l-6.41-4.19a20.33,20.33,0,0,1,3.47-1.71l6.41,4.2a21,21,0,0,0-3.47,1.7"/><path class="cls-26" d="M78.09,56.86l-6.41-4.2a19.24,19.24,0,0,1,3.18-.9L81.27,56a19.24,19.24,0,0,0-3.18.9"/><path class="cls-20" d="M81.27,56l-6.41-4.2a18.86,18.86,0,0,1,3.1-.35l6.41,4.2a18.86,18.86,0,0,0-3.1.35"/></g></g></g><path class="cls-27" d="M84.37,55.61A19,19,0,0,1,95,58.48l29.93,18.36c12,7.36,12.35,24.8.64,32.89L96.39,129.9a19.35,19.35,0,0,1-30.47-15.53l-.75-38.51A19.88,19.88,0,0,1,84.37,55.61Z"/><g class="cls-2"><g class="cls-28"><g class="cls-2"><path class="cls-13" d="M91.62,10.75,85.21,6.56l.45,0,6.41,4.2h-.45"/><path class="cls-12" d="M92.07,10.74l-6.41-4.2A80.34,80.34,0,0,1,101,7.62l6.41,4.19a81.16,81.16,0,0,0-15.36-1.07"/><path class="cls-11" d="M107.43,11.81,101,7.62a79.24,79.24,0,0,1,23.79,8l6.42,4.19a79.58,79.58,0,0,0-23.8-8"/><path class="cls-10" d="M131.23,19.81l-6.42-4.19a76.34,76.34,0,0,1,6.66,3.91l6.41,4.19c-2.15-1.4-4.37-2.71-6.65-3.91"/></g></g></g><g class="cls-2"><g class="cls-29"><g class="cls-2"><path class="cls-4" d="M48.53,160.47l-6.41-4.19a80.34,80.34,0,0,1-36.3-65.9A82.46,82.46,0,0,1,45,18.62l6.41,4.19A82.49,82.49,0,0,0,12.23,94.58a80.32,80.32,0,0,0,36.3,65.89"/><path class="cls-15" d="M51.44,22.81,45,18.62A81,81,0,0,1,59.11,11.7l6.41,4.2a82.44,82.44,0,0,0-14.08,6.91"/><path class="cls-14" d="M65.52,15.9l-6.41-4.2A81.41,81.41,0,0,1,72.12,8l6.42,4.19a82.31,82.31,0,0,0-13,3.69"/><path class="cls-13" d="M78.54,12.21,72.12,8A80.69,80.69,0,0,1,85.21,6.56l6.41,4.19a82.72,82.72,0,0,0-13.08,1.46"/></g></g></g><path class="cls-30" d="M91.62,10.75a80.12,80.12,0,0,1,82.56,78.88c.88,44.91-34.67,82.44-79.39,83.81A80.09,80.09,0,0,1,12.23,94.58C11.35,49.65,46.89,12.12,91.62,10.75Zm33.95,99c11.71-8.09,11.37-25.53-.64-32.89L95,58.48a19,19,0,0,0-10.63-2.87,19.88,19.88,0,0,0-19.2,20.25l.75,38.51A19.35,19.35,0,0,0,96.39,129.9l29.18-20.17"/></g></g></svg>