<?xml version="1.0" encoding="utf-8"?>
<!-- Generator: Adobe Illustrator 22.1.0, SVG Export Plug-In . SVG Version: 6.00 Build 0)  -->
<svg version="1.1" id="Layer_1" xmlns="http://www.w3.org/2000/svg" xmlns:xlink="http://www.w3.org/1999/xlink" x="0px" y="0px"
	 viewBox="0 0 1920 1080" style="enable-background:new 0 0 1920 1080;" xml:space="preserve">
<style type="text/css">
	.st0{fill:#8254CC;}
	.st1{fill:none;stroke:#DDCEF2;stroke-miterlimit:10;}
	.st2{fill:#DDCEF2;}
	.st3{fill:#FFFFFF;}
	.st4{fill:#020202;}
	.st5{fill:#E4B4EF;}
	.st6{fill:#F9E6D2;}
	.st7{fill:#8E8D8D;}
	.st8{fill:#424142;}
	.st9{fill:#F9E8E8;}
	.st10{clip-path:url(#SVGID_2_);}
	.st11{fill:#686767;}
	.st12{clip-path:url(#SVGID_4_);}
	.st13{fill:#F6F6F8;}
	.st14{clip-path:url(#SVGID_6_);}
	.st15{fill:#442C6A;}
	.st16{clip-path:url(#SVGID_8_);}
	.st17{fill:#A3A3A3;}
	.st18{fill:#442C6B;}
	.st19{clip-path:url(#SVGID_10_);}
	.st20{fill:#533683;}
	.st21{fill:#51347E;}
	.st22{fill:#4E327A;}
	.st23{fill:#4B3176;}
	.st24{fill:#492F72;}
	.st25{fill:#462D6E;}
	.st26{clip-path:url(#SVGID_12_);}
	.st27{fill:#858585;}
	.st28{fill:#9F9F9F;}
	.st29{clip-path:url(#SVGID_14_);}
	.st30{fill:#949494;}
	.st31{fill:#999999;}
	.st32{fill:#9E9E9E;}
	.st33{fill:#808080;}
	.st34{clip-path:url(#SVGID_16_);}
	.st35{fill:#8A8A8A;}
	.st36{fill:#8F8F8F;}
	.st37{clip-path:url(#SVGID_18_);}
	.st38{fill:#724AB3;}
	.st39{fill:#E0E0E0;}
	.st40{clip-path:url(#SVGID_20_);}
	.st41{fill:#898785;}
	.st42{fill:#663100;}
	.st43{opacity:0.1;fill:#FFFFFF;enable-background:new    ;}
	.st44{fill:#3D2E1C;}
	.st45{fill:#96969A;}
	.st46{fill:none;stroke:#FFFFFF;stroke-miterlimit:10;}
	.st47{fill:none;stroke:#000000;stroke-miterlimit:10;}
	.st48{fill:#646466;}
	.st49{fill:none;stroke:#000000;stroke-width:9;stroke-miterlimit:10;}
	.st50{stroke:#000000;stroke-width:2;stroke-miterlimit:10;}
</style>
<title>titelskærm</title>
<g id="Layer_2_1_">
	<ellipse class="st0" cx="631" cy="808.1" rx="109.2" ry="254.9"/>
	<path class="st0" d="M631,556.5c0,0-61.8-13.2-105.9,13.2c0,0-81.7-136.8-245-128c0,0-75,167.7,0,298l64-77.2
		c-23.7,26.6-45.1,55.2-64,85.3c-22.8,36.6-43.5,80.1-46.3,119.9c0,0,150.1,181,355.3,165.5"/>
	<path class="st1" d="M573.6,847.8c0,0-57.4-154.5-152.3-132.4S282.3,847.8,573.6,847.8z"/>
	<path class="st1" d="M518.4,900.8c0,0-33.1,70.6,55.2,68.4c0,0,50.8,4.4,57.4-55.2"/>
	<path class="st1" d="M558.2,914c0,0-357.5,17.7-373,41.9"/>
	<path class="st1" d="M432.4,624.9c0,0-59.6-156.7-152.3-183.2"/>
	<path class="st0" d="M615.5,556.5c0,0,61.8-13.2,105.9,13.2c0,0,81.7-136.8,245-128c0,0,75,167.7,0,298l-64-77.2
		c23.7,26.6,45.1,55.2,64,85.3c22.8,36.6,43.5,80.1,46.3,119.9c0,0-150.1,181-355.3,165.5"/>
	<path class="st1" d="M744.1,900.8c0,0,33.1,70.6-55.2,68.4c0,0-50.8,4.4-57.4-55.2"/>
	<path class="st1" d="M708.2,914c0,0,357.5,17.7,373,41.9"/>
	<path class="st1" d="M676.3,847.8c0,0,57.4-154.5,152.3-132.4S967.7,847.8,676.3,847.8z"/>
	<path class="st1" d="M825.2,624.9c0,0,59.6-156.7,152.3-183.2"/>

		<ellipse transform="matrix(0.9766 -0.2149 0.2149 0.9766 -148.0213 82.5208)" class="st0" cx="305.5" cy="722" rx="30.9" ry="40.8"/>

		<ellipse transform="matrix(0.9766 -0.2149 0.2149 0.9766 -130.7307 220.3778)" class="st0" cx="948.1" cy="711.4" rx="25.7" ry="35.7"/>
	<path class="st2" d="M574.7,847.8c0,0-41.9-112.7-111.1-96.6S362.2,847.8,574.7,847.8z"/>
	<path class="st2" d="M676.2,847.8c0,0,41.8-112.7,111.1-96.6S888.7,847.8,676.2,847.8z"/>
	<path class="st3" d="M830.9,794.1c0-23.4-24.5-42.3-54.8-42.3s-54.8,19-54.8,42.3"/>
	<ellipse class="st4" cx="729.8" cy="818.1" rx="36" ry="30.8"/>
	<path class="st3" d="M755.5,811.2c0,0-12.6-24.4-37.7-12.2"/>
	<path class="st5" d="M681.3,917.7l-95.7-4.3c-3.3-0.2-5.8-2.9-5.6-6.2c0-1,0.3-1.9,0.8-2.7l45.8-77.4c1.7-2.8,5.3-3.7,8.1-2.1
		c0.8,0.5,1.5,1.2,2,2l49.9,81.8c1.7,2.8,0.8,6.4-2,8.1C683.6,917.4,682.5,917.7,681.3,917.7z"/>
	<path class="st3" d="M420.2,794.1c0-23.4,24.5-42.3,54.8-42.3s54.8,19,54.8,42.3"/>
	<ellipse class="st4" cx="521.2" cy="818.1" rx="36" ry="30.8"/>
	<path class="st3" d="M495.6,811.2c0,0,12.6-24.4,37.7-12.2"/>
	<circle class="st3" cx="499.7" cy="820.2" r="4.4"/>
	<circle class="st3" cx="757.9" cy="820.2" r="4.4"/>
	<path class="st1" d="M399.2,644.8c0,0-61.8,22.1-90.5,72.8"/>
	<path class="st1" d="M862.7,644.8c0,0,61.8,22.1,90.5,72.8"/>
	<path class="st1" d="M556,936.1c0,0-344.3,64-366.4,97.1"/>
	<path class="st1" d="M703.8,936.1c0,0,344.3,64,366.4,97.1"/>
	<path class="st5" d="M676.2,970.3c0,46.3-22.2,83.9-49.7,83.9s-49.7-37.5-49.7-83.9"/>
	<path class="st3" d="M1811.9,393.7c8.1-9,12.8-19.8,12.8-31.6c0-18.2-11.4-34.3-28.9-44.4c8.1-9,12.8-19.8,12.8-31.6
		c0-22.8-17.9-42.4-43.5-50.9c2.7-5.8,4.1-12.1,4.1-18.5c0-30.6-32.1-55.3-71.6-55.3c-0.8,0-1.6,0-2.3,0c-8-23.8-36-41.3-69.3-41.3
		c-10.5,0-20.8,1.8-30.7,5.3c-13.1-11.4-32.2-18.5-53.4-18.5c-28.5,0-53.2,12.9-64.7,31.6c-34.5,2.1-62.2,23-65.6,49.5
		c-24.5,8.8-41.5,28-41.5,50.2c0,2.8,0.3,5.7,0.8,8.5c-25.7,8.4-43.8,28.1-43.8,51c0,21.5,15.8,40.1,39,49.2
		c-4.4,7-6.7,15.1-6.7,23.4c0,25.7,22.6,47.2,53.3,53.5c-0.9,3.6-1.4,7.2-1.4,10.9c0,30.6,32.1,55.3,71.6,55.3
		c12.7,0.1,25.3-2.6,36.8-7.9c13.1,11.9,32.7,19.4,54.5,19.4c14.1,0.1,28-3.2,40.5-9.7c13,10.1,30.9,16.3,50.8,16.3
		c25.6,0,48.1-10.4,60.7-26c13.1,7.4,28,11.3,43.1,11.1c39.5,0,71.6-24.8,71.6-55.3C1840.8,420,1829.4,403.8,1811.9,393.7z"/>
	<path class="st3" d="M1368.4,517.4c0-21.4-17.4-38.8-38.8-38.8c-4.9,0-9.8,0.9-14.4,2.8c-16.3-14-40.8-12.1-54.7,4.2
		c-14,16.3-12.1,40.8,4.2,54.7c6.2,5.4,14,8.6,22.2,9.2c4.9,20.9,25.8,33.8,46.7,28.8c17.5-4.1,29.9-19.8,29.9-37.8
		c0-1.3-0.1-2.6-0.2-3.8C1366.6,530.8,1368.4,524.2,1368.4,517.4z"/>
	<path class="st3" d="M1198.3,600c0-21.4-17.3-38.8-38.8-38.9c-21.4,0-38.8,17.3-38.9,38.8c0,3.1,0.4,6.2,1.1,9.2
		c-5,20.8,7.8,41.8,28.7,46.8c20.8,5,41.8-7.8,46.8-28.7c0.7-3,1.1-6,1.1-9c0-3.1-0.4-6.1-1.1-9.1
		C1197.9,606.1,1198.3,603.1,1198.3,600z"/>
	<path class="st6" d="M1361.5,336.5c29.3-7.2,59.3-10.7,89.5-10.4c28.6-0.5,52.9,2.8,82.6-2c15.8-2.7,31.3-6.9,46.4-12.4
		c0.4-1.2,0.3-2.5-0.4-3.5c-16.7,6.3-33.4,9.7-51.5,13c-29.1,4.1-53.2,0.9-79.8,0.8c-27.4,0.5-55.2,4.5-85.4,11
		C1362.1,333.7,1361.8,335.1,1361.5,336.5L1361.5,336.5z"/>

		<ellipse transform="matrix(0.9991 -4.205003e-02 4.205003e-02 0.9991 -11.5207 68.7771)" class="st7" cx="1629.1" cy="308.2" rx="73.8" ry="59.6"/>
	<ellipse class="st7" cx="1728.5" cy="336.6" rx="41.3" ry="33"/>
	<circle class="st3" cx="1739.2" cy="325.8" r="10.7"/>
	<ellipse cx="1740.9" cy="331.6" rx="4.1" ry="5"/>
	<circle class="st3" cx="1740" cy="330" r="1.7"/>
	<ellipse class="st8" cx="1765.6" cy="338.2" rx="10.7" ry="6.6"/>
	<ellipse class="st3" cx="1768.9" cy="336.6" rx="2.5" ry="1.6"/>
	<path class="st9" d="M1759,358.9c0,0-15.6-2.5-15.6-10.7"/>
	<g>
		<g>
			<defs>
				<polygon id="SVGID_1_" points="1706.7,329.1 1706.3,304.5 1720.5,302.8 1721,327.4 				"/>
			</defs>
			<clipPath id="SVGID_2_">
				<use xlink:href="#SVGID_1_"  style="overflow:visible;"/>
			</clipPath>
			<g class="st10">
				<path class="st11" d="M1713.2,326.7c-1.6,0.2-3-3.3-3.1-7.9s1.2-8.4,2.8-8.6s3,3.3,3.1,7.9S1714.9,326.5,1713.2,326.7
					 M1713.4,303.6c-3.9,0.5-7,6.4-6.9,13.2s3.4,11.9,7.3,11.5s7-6.4,6.9-13.2S1717.3,303.1,1713.4,303.6"/>
				<path class="st9" d="M1712.9,310.3c-1.6,0.2-2.9,4-2.8,8.6s1.5,8,3.1,7.9s2.9-4,2.8-8.6S1714.5,310.1,1712.9,310.3"/>
			</g>
		</g>
	</g>
	<g>
		<g>
			<defs>
				<polygon id="SVGID_3_" points="1725.8,315.9 1725.6,291.3 1741.1,289.6 1741.2,314.2 				"/>
			</defs>
			<clipPath id="SVGID_4_">
				<use xlink:href="#SVGID_3_"  style="overflow:visible;"/>
			</clipPath>
			<g class="st12">
				<path class="st11" d="M1732.9,313.4c-1.8,0.2-3.2-3.3-3.3-7.8s1.4-8.4,3.2-8.5s3.2,3.3,3.3,7.9S1734.6,313.3,1732.9,313.4
					 M1733.3,290.4c-4.3,0.5-7.7,6.4-7.6,13.1s3.5,11.9,7.8,11.5s7.7-6.3,7.6-13.1S1737.6,290,1733.3,290.4"/>
				<path class="st9" d="M1732.8,297c-1.8,0.2-3.2,4-3.2,8.5s1.5,8,3.3,7.8s3.2-4,3.2-8.5S1734.5,296.9,1732.8,297"/>
			</g>
		</g>
	</g>
	<circle class="st13" cx="162.7" cy="457.9" r="20"/>
	<circle class="st3" cx="115.9" cy="457.9" r="20"/>
	<rect x="139.9" y="426.9" transform="matrix(0.7477 -0.6641 0.6641 0.7477 -244.9391 212.0018)" width="33.1" height="2.8"/>
	<rect x="120.8" y="411.7" transform="matrix(0.6643 -0.7475 0.7475 0.6643 -279.1057 235.0616)" width="2.8" height="33.1"/>
	<circle cx="115.9" cy="459.2" r="7.6"/>
	<circle cx="162.7" cy="459.2" r="7.6"/>
	<circle class="st13" cx="1355.2" cy="1018.7" r="18.9"/>
	<circle class="st3" cx="1310.9" cy="1018.7" r="18.9"/>
	<rect x="1333.6" y="989.5" transform="matrix(0.7477 -0.6641 0.6641 0.7477 -317.4844 1146.0137)" width="31.4" height="2.6"/>
	<rect x="1315.4" y="974.9" transform="matrix(0.6643 -0.7475 0.7475 0.6643 -298.3907 1316.6959)" width="2.6" height="31.4"/>
	<circle cx="1310.9" cy="1020" r="7.2"/>
	<circle cx="1355.2" cy="1020" r="7.2"/>
	<circle class="st13" cx="1693.2" cy="63.7" r="18.9"/>
	<circle class="st3" cx="1648.9" cy="63.7" r="18.9"/>
	<rect x="1671.7" y="34.5" transform="matrix(0.7477 -0.6641 0.6641 0.7477 402.019 1129.5465)" width="31.4" height="2.6"/>
	<rect x="1653.4" y="19.9" transform="matrix(0.6643 -0.7475 0.7475 0.6643 528.8451 1248.7253)" width="2.6" height="31.4"/>
	<circle cx="1648.9" cy="64.9" r="7.2"/>
	<circle cx="1693.2" cy="64.9" r="7.2"/>
	<circle class="st13" cx="778.4" cy="249.2" r="20.6"/>
	<circle class="st3" cx="730.2" cy="249.2" r="20.6"/>
	<rect x="755" y="217.3" transform="matrix(0.7477 -0.6641 0.6641 0.7477 49.5565 567.8853)" width="34.2" height="2.8"/>
	<rect x="735.1" y="201.5" transform="matrix(0.6643 -0.7475 0.7475 0.6643 83.8181 623.8997)" width="2.8" height="34.2"/>
	<circle cx="730.2" cy="250.6" r="7.8"/>
	<circle cx="778.4" cy="250.6" r="7.8"/>
	<g>
		<g>
			<g>
				<defs>
					<path id="SVGID_5_" d="M1611.7,734.7l6.4,4.2c11.5,7.5,11.7,24.6,0.1,32.6l-6.4-4.2C1623.3,759.3,1623.2,742.3,1611.7,734.7z"
						/>
				</defs>
				<clipPath id="SVGID_6_">
					<use xlink:href="#SVGID_5_"  style="overflow:visible;"/>
				</clipPath>
				<g class="st14">
					<g>
						<path class="st15" d="M1618.2,771.5l-6.4-4.2c11.6-8,11.4-25-0.1-32.6l6.4,4.2C1629.6,746.5,1629.8,763.5,1618.2,771.5"/>
					</g>
				</g>
			</g>
		</g>
		<g>
			<g>
				<defs>
					<polygon id="SVGID_7_" points="1611.7,734.7 1618.1,738.9 1617.6,738.6 1611.2,734.4 					"/>
				</defs>
				<clipPath id="SVGID_8_">
					<use xlink:href="#SVGID_7_"  style="overflow:visible;"/>
				</clipPath>
				<g class="st16">
					<g>
						<path class="st17" d="M1617.6,738.6l-6.4-4.2l0.5,0.3l6.4,4.2L1617.6,738.6"/>
					</g>
				</g>
			</g>
		</g>
		<polygon class="st18" points="1532.7,830.6 1526.3,826.4 1611.8,767.3 1618.2,771.5 		"/>
		<g>
			<g>
				<defs>
					<path id="SVGID_9_" d="M1511,830.9l-6.4-4.2c6.6,4.4,15.3,4.3,21.8-0.3l6.4,4.2C1526.3,835.2,1517.6,835.3,1511,830.9z"/>
				</defs>
				<clipPath id="SVGID_10_">
					<use xlink:href="#SVGID_9_"  style="overflow:visible;"/>
				</clipPath>
				<g class="st19">
					<g>
						<path class="st20" d="M1511,830.9l-6.4-4.2c0.5,0.4,1.1,0.7,1.7,1l6.4,4.2C1512.1,831.6,1511.5,831.3,1511,830.9"/>
						<path class="st21" d="M1512.6,831.9l-6.4-4.2c1.8,1,3.8,1.7,5.8,2l6.4,4.2C1516.4,833.5,1514.4,832.9,1512.6,831.9"/>
						<path class="st22" d="M1518.4,833.8l-6.4-4.2c1.2,0.2,2.4,0.3,3.7,0.3l6.4,4.2C1520.9,834.1,1519.7,834.1,1518.4,833.8"/>
						<path class="st23" d="M1522.1,834.1l-6.4-4.2h0.1c1,0,2-0.2,3-0.3l6.4,4.2c-1,0.2-2,0.3-3,0.3L1522.1,834.1"/>
						<path class="st24" d="M1525.3,833.8l-6.4-4.2c1-0.2,2.1-0.5,3.1-0.9l6.4,4.2C1527.3,833.3,1526.3,833.6,1525.3,833.8"/>
						<path class="st25" d="M1528.3,832.9l-6.4-4.2c1.2-0.5,2.3-1,3.4-1.7l6.4,4.2C1530.7,831.9,1529.5,832.4,1528.3,832.9"/>
						<path class="st15" d="M1531.8,831.2l-6.4-4.2c0.3-0.2,0.6-0.4,0.9-0.6l6.4,4.2C1532.4,830.8,1532.1,831,1531.8,831.2"/>
					</g>
				</g>
			</g>
		</g>
		<g>
			<g>
				<defs>
					<path id="SVGID_11_" d="M1511,830.9l-6.4-4.2c-5.4-3.5-8.6-9.4-8.7-15.8l6.4,4.2C1502.4,821.5,1505.6,827.4,1511,830.9z"/>
				</defs>
				<clipPath id="SVGID_12_">
					<use xlink:href="#SVGID_11_"  style="overflow:visible;"/>
				</clipPath>
				<g class="st26">
					<g>
						<path class="st27" d="M1511,830.9l-6.4-4.2c-5.4-3.5-8.6-9.4-8.7-15.8l6.4,4.2C1502.4,821.5,1505.6,827.4,1511,830.9"/>
					</g>
				</g>
			</g>
		</g>
		<polygon class="st28" points="1529.9,684.8 1523.5,680.6 1611.2,734.4 1617.6,738.6 		"/>
		<g>
			<g>
				<defs>
					<path id="SVGID_13_" d="M1519.2,682l-6.4-4.2c3.7-0.1,7.4,0.9,10.6,2.9l6.4,4.2C1526.7,682.9,1523,681.9,1519.2,682z"/>
				</defs>
				<clipPath id="SVGID_14_">
					<use xlink:href="#SVGID_13_"  style="overflow:visible;"/>
				</clipPath>
				<g class="st29">
					<g>
						<path class="st30" d="M1519.2,682l-6.4-4.2h0.1L1519.2,682L1519.2,682"/>
						<path class="st31" d="M1519.3,682l-6.4-4.2c1.2,0,2.4,0.1,3.6,0.2l6.4,4.2C1521.7,682.1,1520.5,682,1519.3,682"/>
						<path class="st32" d="M1522.9,682.2l-6.4-4.2c2,0.3,3.9,1,5.7,1.9l6.4,4.2C1526.8,683.2,1524.9,682.5,1522.9,682.2"/>
						<path class="st17" d="M1528.6,684.1l-6.4-4.2c0.4,0.2,0.8,0.5,1.3,0.7l6.4,4.2C1529.4,684.6,1529,684.3,1528.6,684.1"/>
					</g>
				</g>
			</g>
		</g>
		<polygon class="st33" points="1502.2,815 1495.8,810.9 1493.6,698 1500.1,702.2 		"/>
		<g>
			<g>
				<defs>
					<path id="SVGID_15_" d="M1500.1,702.2l-6.4-4.2c-0.2-10.9,8.3-19.9,19.2-20.2l6.4,4.2C1508.4,682.3,1499.8,691.4,1500.1,702.2z
						"/>
				</defs>
				<clipPath id="SVGID_16_">
					<use xlink:href="#SVGID_15_"  style="overflow:visible;"/>
				</clipPath>
				<g class="st34">
					<g>
						<path class="st27" d="M1500.1,702.2l-6.4-4.2c-0.2-7,3.4-13.6,9.4-17.3l6.4,4.2C1503.5,688.6,1499.9,695.2,1500.1,702.2"/>
						<path class="st35" d="M1509.5,684.9l-6.4-4.2c1.1-0.7,2.3-1.2,3.5-1.7l6.4,4.2C1511.8,683.7,1510.6,684.2,1509.5,684.9"/>
						<path class="st36" d="M1513,683.2l-6.4-4.2c1-0.4,2.1-0.7,3.2-0.9l6.4,4.2C1515.1,682.5,1514,682.8,1513,683.2"/>
						<path class="st30" d="M1516.1,682.3l-6.4-4.2c1-0.2,2.1-0.3,3.1-0.3l6.4,4.2C1518.2,682,1517.2,682.1,1516.1,682.3"/>
					</g>
				</g>
			</g>
		</g>
		<g>
			<g>
				<defs>
					<path id="SVGID_17_" d="M1472.7,867.9l-6.4-4.2c-37.2-24.4-59.9-65.6-60.7-110.1c-1.5-75.1,58-137.8,132.7-140.1l6.4,4.2
						c-74.8,2.3-134.2,65-132.7,140.1C1412.7,802.2,1435.5,843.5,1472.7,867.9z"/>
				</defs>
				<clipPath id="SVGID_18_">
					<use xlink:href="#SVGID_17_"  style="overflow:visible;"/>
				</clipPath>
				<g class="st37">
					<g>
						<path class="st15" d="M1472.7,867.9l-6.4-4.2c-37.2-24.4-59.9-65.6-60.7-110.1c-0.9-48.8,24-94.4,65.6-119.9l6.4,4.2
							c-41.5,25.6-66.5,71.2-65.6,119.9C1412.7,802.2,1435.4,843.5,1472.7,867.9"/>
						<path class="st25" d="M1477.6,637.8l-6.4-4.2c7.5-4.6,15.3-8.5,23.5-11.5l6.4,4.2C1492.9,629.3,1485,633.2,1477.6,637.8"/>
						<path class="st24" d="M1501.1,626.2l-6.4-4.2c7.1-2.7,14.3-4.7,21.8-6.2l6.4,4.2C1515.5,621.5,1508.2,623.6,1501.1,626.2"/>
						<path class="st23" d="M1522.9,620.1l-6.4-4.2c7.2-1.4,14.5-2.2,21.9-2.4l6.4,4.2C1537.4,617.9,1530.1,618.7,1522.9,620.1"/>
					</g>
				</g>
			</g>
		</g>
		<path class="st38" d="M1544.7,617.6c74.8-2.3,136.5,56.7,138,131.8s-58,137.8-132.7,140.1s-136.5-56.7-138-131.8
			S1470,619.9,1544.7,617.6z M1618.2,771.5c11.7-8.1,11.4-25.5-0.6-32.9l-87.7-53.8c-3.2-2-6.9-3-10.6-2.9
			c-10.9,0.4-19.4,9.4-19.2,20.2l2.2,112.8c0.2,10.7,8.9,19.2,19.6,19c3.9-0.1,7.7-1.3,10.8-3.5L1618.2,771.5"/>
		<path class="st39" d="M1519.2,682c3.8-0.1,7.5,0.9,10.6,2.9l87.7,53.8c12,7.4,12.3,24.8,0.6,32.9l-85.5,59.1
			c-8.7,6.1-20.8,4-26.9-4.7c-2.2-3.2-3.5-6.9-3.5-10.8l-2.2-112.8C1499.8,691.4,1508.4,682.4,1519.2,682z"/>
		<g>
			<g>
				<defs>
					<path id="SVGID_19_" d="M1615.6,635.1l6.4,4.2c-22.9-15-49.9-22.6-77.3-21.7l-6.4-4.2C1565.7,612.5,1592.7,620.1,1615.6,635.1z
						"/>
				</defs>
				<clipPath id="SVGID_20_">
					<use xlink:href="#SVGID_19_"  style="overflow:visible;"/>
				</clipPath>
				<g class="st40">
					<g>
						<path class="st23" d="M1544.7,617.6l-6.4-4.2h0.7l6.4,4.2H1544.7"/>
						<path class="st22" d="M1545.5,617.6l-6.4-4.2c8.6-0.2,17.2,0.4,25.7,1.8l6.4,4.2C1562.7,618,1554.1,617.4,1545.5,617.6"/>
						<path class="st21" d="M1571.2,619.4l-6.4-4.2c13.9,2.3,27.3,6.8,39.8,13.4l6.4,4.2C1598.5,626.2,1585,621.7,1571.2,619.4"/>
						<path class="st20" d="M1610.9,632.8l-6.4-4.2c3.8,2,7.5,4.2,11.1,6.5l6.4,4.2C1618.5,637,1614.7,634.8,1610.9,632.8"/>
					</g>
				</g>
			</g>
		</g>
	</g>
	<g id="Layer_1_1_">
		<rect x="-0.3" class="st41" width="1920" height="1080"/>
		<path class="st42" d="M1624.7,535.6c-40.4,11.9-43.1,54.7-43.5,90.5c-6.3,17.8-7.4,36.9-3.2,55.3c8.6,1.5,16.6,4.9,23.6,10.1
			c-2.8,5.4-6.9,7.8-12.2,7.2c42.4,24,120.1,3.4,167.5,6.9c36.8,2.7,129.2,13.5,81.7-59.8c158.1,27.4,43.5-96.3-11.5-106.5
			C1762.9,527.4,1691.3,547.5,1624.7,535.6z"/>
		<path class="st43" d="M1658.6,700.2c-14.4,0-26.6-1.2-36.6-3.6l3.7-7.1l-8-6c-6.2-4.6-13.1-8.1-20.5-10.3
			c-2.1-14.1-0.7-28.4,4.1-41.8l0.6-1.8v-1.9c0.4-42.6,6-69.3,32.6-78.6c16.8,2.6,33.8,3.9,50.8,3.7c17.6,0,35.5-1,52.7-2
			c16.7-1,33.9-1.9,50.3-1.9c17.4,0,32.3,1.1,45.6,3.4c29.9,5.2,62.4,35.7,64.4,60.6c1,12.8-6.8,21.8-24.1,27.8l-104.1-14.5
			l98.1,31.9c7.9,12.2,10.6,21.8,7.8,27c-2.2,4-11.9,13.4-55,13.4l0,0c-16.8,0-33.7-1.4-45.9-2.4c-3.2-0.3-6-0.5-8.4-0.7
			c-4.1-0.3-8.4-0.5-13.2-0.5c-13.9,0-29.1,1.2-45.2,2.6C1691.8,698.8,1674.7,700.2,1658.6,700.2z"/>
		<path class="st42" d="M1261.6,826.6c1.3-100.4-17.5-111.5-115.5-109.9c-83.4,1.3-162.8-36.2-192.5,55.8
			c-32,98.8,19.4,102.7,96.2,103.3C1122.8,876.5,1234.7,919.4,1261.6,826.6z"/>
		<path class="st43" d="M1159.2,832c-19.9,0-32,39.8-52.8,37.2c-20.1-2.5-39-4.9-56.5-5.1c-42.6-0.4-76.1-2-88.2-18.7
			c-8.9-12.3-7.8-35.6,3.1-69.3c14.5-44.9,41.2-54.1,76.7-54.1c13.9,0,45.6,55.8,61.6,57.3c17.8,1.7,19.6-50.8,38.6-50.8
			c1.6,0,3.2,0,4.7,0c5.5-0.1,10.4-0.1,15-0.1c36.1,0,61,2.5,73.4,15.1c11.5,11.7,15.8,34.6,15.3,81.4c-10.7,34.8-35,49.7-81.2,49.7
			C1168.7,874.6,1159.2,832,1159.2,832z"/>
		<path class="st42" d="M947.5,653.1c0.7-50.9,16.8-92.5-44.6-112c-36-11.4-95.4,3.5-133.6,2.2c-40.7-1.3-88.2-19.6-116.3,14.3
			c-17,20.5-27.5,109.4-13.6,133.9l25.6-9.6l-16,17.9c42.2,21,117.9,2.3,165.5,5.9C874.4,710.1,926.1,726.7,947.5,653.1z"/>
		<path class="st43" d="M874.8,698.7c-11.2,0-23.4-1.3-36.4-2.6c-7.5-0.8-15.2-1.6-23-2.2c-4.5-0.3-9.3-0.5-14.8-0.5
			c-14,0-29.1,1.1-45,2.3c-16.2,1.2-32.9,2.4-48.6,2.4c-15.2,0-27.6-1.2-37.7-3.6l4.4-4.9l-12.9-18.8l-14.3,5.4
			c-2.1-10.9-2.8-28.9-0.3-52c3.3-30.4,10.4-52.8,15.8-59.2c9.2-11.2,21.9-16.1,41.1-16.1c10.7,0,22,1.5,34,3
			c10.5,1.3,21.3,2.8,31.8,3.1c1.6,0,3.4,0.1,5.1,0.1c13.7,0,28.9-1.6,45.1-3.2c16.5-1.7,33.5-3.4,49-3.4c13,0-3.8,63.2,4.2,65.7
			c41.9,13.3,67.5-26.9,64.8,12.4c-0.5,7.9-1.1,16.1-1.3,24.7C924,690.7,903.7,698.7,874.8,698.7L874.8,698.7z"/>
		<path class="st42" d="M633.4,826.6c1.1-82.1-1.5-109.5-87.2-111.4c-48.4-1-160.1-21.7-196.7,2.1l18.9,13
			c-43.6-2.8-39.7,17.9-43.6,69.3c-1.7,21.8-19.9,75.9,17.8,63.1c-12.5,27,115.8,13.3,142.2,15C548.8,881.9,610.3,906.1,633.4,826.6
			z"/>
		<path class="st43" d="M559.2,872.7c-12.5,0-26.2-1.6-40.6-3.3c-10.7-1.3-21.8-2.6-33-3.3c-1.8-0.1-4-0.2-6.8-0.2
			c-7.1,0-17,0.4-28.3,0.8c-15.1,0.6-32.1,1.3-48.4,1.3c-30,0-42.2-2.5-47.1-4.2l34.8-21.3l-50.9,9.1c-2,0.8-4.1,1.2-6.2,1.3
			c-0.2,0-0.4,0-0.7,0c-0.4-0.8-1.5-3.6-1.2-11.3c0.3-7.4,1.9-16.2,3.2-24c1.1-6.3,2.1-12.2,2.5-17.1c0.4-5.6,0.8-10.7,1.1-15.6
			c1.1-16.6,1.9-29.8,5.3-36.4c1.3-2.5,3.4-6.7,18.3-6.7c2,0,4.2,0.1,6.5,0.2l42.2,2.7l-35.2-24.3c9.9-1.9,22.4-2.9,37.6-2.9
			c26.5,0,56.6,2.9,83.2,5.5c19.9,1.9,37.1,3.6,50.4,3.8c38.5,0.8,35.2,27.1,44,40.7c9.2,14.2,32.2,19.6,31.7,57.3
			C609.7,864.5,588,872.7,559.2,872.7L559.2,872.7z"/>
		<path class="st42" d="M256.5,539.3c92.9-12,90.3-158.2,0-173.5c-42.6-7.2-219-15.2-234.6,22.3c13.1,6,25.4,13.6,36.6,22.7
			c-43.6,1.5-71.8,24.4-52.6,76.8c15.4,42.1-5.9,33.3,42,25.9l-16.6,16.8C93,549.7,188.5,532,256.5,539.3z"/>
		<path class="st43" d="M114.4,528c-24.4,0-44-1.4-60.3-4.3l27-27.2l-34.7-21.7c-10.4,1.6-18.1,30.4-23.2,31.6
			c-1.5-7.8-3.7-15.4-6.5-22.9c-7.1-19.4-7.2-34.3-0.5-44.3c4.8-7.2,16.6,0.1,43-0.8l30.8-17.1l-24.3-19.7
			c-7.5-6.1-15.4-11.5-23.7-16.3c14.8-6.8,48.6-14,114.1-14c41.2,0,81.4,3.1,98.3,5.9c41.5,7,59.6,46,59,79.2
			c-0.6,29.1-19.6,27.5-60.9,33.5c-11.9-1.2-21.8,35.7-37.9,35.7s-33.2,0.6-49.8,1.2C148.2,527.4,130.9,528,114.4,528L114.4,528z"/>
		<path class="st42" d="M640.6,519.9c21.8,29.7,181.4,16.4,218.8,16.6c70.5,0.3,142.5-102,71.1-159.2c-35.1-28.1-179.9-17-222-11.6
			c-51.8,6.6-51.8,6.7-69,59.7C632.8,445.9,626.4,500.5,640.6,519.9z"/>
		<path class="st43" d="M752.6,527.6c-28.9,0-51.4-1.2-68.8-3.7c-27.3-3.9-32.8-9.8-33.7-10.9c-4.5-6.2-6.8-20.9-6.2-39.5
			c0.7-18.4,3.9-35.9,6.7-44.5c7.7-23.7,64.4,7.7,70.5,2.4c6-5.1-34-51.2-11.2-54.1c37-4.3,74.1-6.6,111.3-6.7
			c24.7,0,84.1,1.5,101.9,15.8c31.5,25.2,26.5,56.4,20.8,72.8c-6.1,17.4-18.1,33.8-33.9,46.2c-15.7,12.4-68.1-11.9-84.7-11.9
			l33.4,31.3c-7.3,0-18.1,0.4-31.9,1C805.6,526.6,779.2,527.6,752.6,527.6z"/>
		<path class="st42" d="M1575.7,132.5c-1.2,13.5,1.1,27.1,6.7,39.5l37.9-15.2l-29.9,21.8c32.5,17.1,233.3,26.9,267.9,6.1
			c48.7-29.3,49.2-187-11.2-143.6c-18.9-41.4-127.8-36.6-175-32.6C1579.9,16.3,1597.6,56.9,1575.7,132.5z"/>
		<path class="st43" d="M1737.8,111.7c-56.4,0-91.2,68.2-121.3,62.4l10.7-7.8l-11.3-20.3l-26.7,10.7c-1.9-7.2-2.6-14.6-2-22
			c4.8-16.7,7.7-31.5,10.2-44.7c4.4-22.5,7.5-38.7,16.9-49.5c9.9-11.4,28-17.6,58.8-20.2c19.7-1.6,38.5-2.5,55.9-2.5
			c60,0,99.2,10.3,107.4,28.3l5.9,13l11.6-8.4c4.8-3.4,9.1-5.3,12.2-5.3c6.9,0,11,11.9,12.4,17c9.6,34.6-1.9,97.6-26.3,112.3
			C1844.1,179.6,1794.9,111.7,1737.8,111.7z"/>
		<path class="st42" d="M953.5,251.9c2.6,29.8-16.6,64.9,0.2,92.9l31.9-21l-23.4,28.4c42.2,22.1,159.5,10.5,211.2,10.7
			c63.7,0.3,118.7-53.2,90.8-124.8c-25.1-64.3-93.2-41.6-149-41.4C1045.9,196.9,971.1,163.8,953.5,251.9z"/>
		<path class="st43" d="M1062,354.1c-36.3,0-62.8-2.3-80.3-7l13-15.8L979.2,314l-19.8,13c-2.2-11.4,0.1-24.5,2.5-38.1
			c2.1-11.9,4.2-24.2,3.5-36.3c8.8-41.7,30.6-50.2,62.8-50.2c12.3,0,25.7,1.4,39.8,2.8c15.2,1.5,30.9,3.1,46.6,3.1h0.8
			c11.9,0,24.3-1.1,36.3-2s24.2-2,35.6-2c36.5,0,55.7,11,66.2,38c13.3,34,4.4,58.3-5.4,72.7c-15.2,22.3-73.6-20.6-104-20.6
			l28.2,56.8c-12,0-26.8,0.5-43.8,1.2C1107.8,353.2,1084.6,354.1,1062,354.1z"/>
		<path class="st42" d="M319.3,132.5c-0.8,62.3,41.4,50,87.9,50.2s119.7,20,163.4,9.5c133.9-32.2,47.2-253-70.8-159.6
			C476.4,6.1,400.3-6.9,361.9,17.1C319.1,43.9,331.9,89.2,319.3,132.5z"/>
		<path class="st43" d="M539.7,183.6c-21.4,0-46.1-3.3-70-6.6c-22.7-3.1-22-11.4-40.2-11.5l-22.3-25.8c-6.6,0-14.4,31.4-20.6,31.6
			c-5.8,0.2-11.2,0.4-16.3,0.4l0,0c-16.8,0-25.9-2.2-31.3-7.7s-8-15.5-8-30c3.8-13.7,5.3-27.2,6.7-40.3c3.1-28.7,5.6-51.3,30.5-66.8
			c11.2-7,27.9-10.9,46.9-10.9c31.2,0,63.9,10.4,76,24.1l7.3,8.3l8.7-6.9c17-13.5,37.5,23.1,53.6,23.1c21.6,0,33.2-31.2,42.2-21
			c12.3,14,20.7,33.2,23,52.9c2.2,19-1.3,37.3-10,51.5c-10,16.3-26.1,27.3-48.1,32.6C560.1,182.7,550.9,183.6,539.7,183.6z"/>
		<path class="st44" d="M1241,695.6c0.4,1.7,60.9-159.7-0.6-116.1c5.7-63.2-93.1-35.2-141.1-35.9c-23.8-0.3-154.9-25.8-116.2,25.3
			l-18-9.6c-28.5,63.4-35.4,141.3,43.6,147.5C1051.9,710.2,1213.1,729.6,1241,695.6z"/>
		<path class="st43" d="M1145.4,703.7c-42,0-89-4.3-117.1-6.9c-7.4-0.7-13.8-1.3-18.7-1.7c-21.6-1.7-36.7-9.5-44.8-23.2
			c-12.2-20.6-9.8-56,6.1-96.3l6.7,3.6l14.8-17.4c-3.7-4.9-4.5-7.6-4.7-8.6c1.3-1,83.6,38.7,105.8,38.7c18.9,0-34.4-40.7-17.9-38.8
			c10.3,1.2,18.5,2.1,23.4,2.2h2l0,0c11.1,0,54.8,23.9,68.6,22.6c15-1.5-0.1-28.2,14.1-28.2c20.7,0,34.3,3.4,40.4,10.1
			c3.8,4.2,5.3,10.2,4.5,18.6l-2.3,25.3l20.7-14.7c2.6-2,5.5-3.6,8.5-4.8c1,4.4,2,18-7.7,53.4c-4.7,17.4-10.4,34.6-16.8,51.4
			C1226.1,694,1208.2,703.6,1145.4,703.7L1145.4,703.7z"/>
		<path class="st44" d="M1575.7,826.6c0.4-31.4,14.5-61.2-5.7-90.5l-16.2,9.4l8.9-17.8c-35.3-32.3-196.4-22.8-239.1-16.7
			c-40.4,5.8-83.8,73.7-60.5,139.7c10.5,29.8,40.8,25.5,72.1,27.1C1409.1,881.6,1549.4,917.3,1575.7,826.6z"/>
		<path class="st43" d="M1460.4,876.2c-26.3,0-54.4-3.1-79.2-5.8c-16.4-1.8-31.9-3.5-45.4-4.2c-4.7-0.2-9.3-0.3-13.8-0.5
			c-29.5-0.7-42.1-2.6-47.8-18.9c-10.4-29.5-6.7-63.4,9.9-90.8c11.2-18.6,37.8,4.2,52,2.2c17-2.4,48.3-41.7,94.8-41.7
			c72.6,0,103.6,8.6,116.7,15.1l-86.2,66.4l104.1-45.8c5.7,14.2,3.6,29.1,1.2,45.9c-1.4,8.8-2.3,17.7-2.7,26.6
			c-5.8,18.8-17.7,32-36.3,40.3C1511,872.6,1489,876.2,1460.4,876.2L1460.4,876.2z"/>
		<path class="st44" d="M1558,562.6c-1.3,0-20.3-18.5-36.1-22.4c-36.3-9.1-86.9,4.3-124.5,3.1c-40.4-1.3-88.3-19.3-116.3,14.3
			c-14.3,17.2-27.9,99.2-18.1,119.6c24.9,52,155.7,29.9,209.9,31.3c54.6,1.4,84.1,3.3,102.7-55.4
			C1582.8,630.7,1590.7,561.3,1558,562.6z"/>
		<path class="st43" d="M1370,700.3c-55.8,0-6.2-29.7-15.2-48.6c-2.8-5.8-84.5-5.8-80.1-33.7c4.3-27.5,11.2-47.8,15.5-52.9
			c9.2-11.1,22-16,41.3-16c10.8,0,22.6,1.5,34.1,3c10.4,1.3,21.1,2.7,31.5,3c1.7,0.1,3.6,0.1,5.4,0.1c13.9,0,29.3-1.6,44.1-3.2
			c15.1-1.6,30.8-3.2,45.1-3.2c10.8,0,19.8,0.9,27.3,2.8c9.1,2.3,21.9,12.6,27.3,17c4.6,3.7-17.1,55,11.6,5.8h0.2h0.7
			c2,0,3.6,0.5,5.4,2.9c9.8,13.4,5.6,55.1,0.2,72.3c-6.6,20.7-14.6,33.4-25.2,40c-10.4,6.4-24.3,7.7-41.9,7.7l0,0
			c-6.6,0-13.7-0.2-21.3-0.4l-2.8-0.1c-1.9,0-3.8-0.1-5.9-0.1c-11.5,0-25.5,0.8-40.4,1.5C1409.4,699.2,1389.3,700.3,1370,700.3z"/>
		<path class="st44" d="M1561.2,379.3c-4.9,4-8.5,9.3-10.4,15.3c6.7,3.8,13.9,4.1,21.6,0.6c-7.7,3.4-14.9,3.2-21.6-0.6
			C1552.7,388.6,1556.3,383.3,1561.2,379.3c-35.8-30.1-181-19.1-224.6-13.5c-51.8,6.6-51.8,6.7-69,59.7c-6.2,19-13.8,76.8,1.2,94.5
			c25.8,30.5,178.3,16.4,218.8,16.6C1555.9,536.8,1630.2,437.3,1561.2,379.3z"/>
		<path class="st43" d="M1378.8,527.9c-27.7,0-49.4-1.2-66.4-3.8c-25.4-3.8,15.1-42.4,13.1-44.7c-10.1-11.9-53.2-30.3-46.7-50.5
			c7.7-23.7,11.8-36.6,18-42c6-5.1,18.5-6.8,41.3-9.7c36-4.2,72.2-6.4,108.5-6.5c75.1,0,99.3,10.9,107,17.4l0.5,0.4l-9.2,16.1
			c5.1,3,10.9,4.6,16.8,4.6v-13.2c20.7,23.3,15.9,49.2,10.7,63.4c-13.1,36-51.1,65.3-84.6,65.3h-1c-8.2,0-20.4,0.5-34.6,1.1
			C1431.1,526.8,1404.8,527.9,1378.8,527.9z M1503.9,412.2c-8-1.3-5.6,11.8-13.5,13.5c-26.6,5.7,10.7,24.9,15.5,25.6
			c8,1.3,8.9-21.6,7.6-29.6C1512.6,416.8,1508.8,413,1503.9,412.2z"/>
		<path class="st44" d="M953.5,425.4c8.5,98-12.7,102.4,96.2,103.3c29.6,0.3,195.6,26.2,183.2-14.4c27.3,6,33.8-53.2,32.6-75.2
			c-3.1-58.6-24.7-68.1-78.9-72.1C1110.6,361.4,971.3,336.4,953.5,425.4z"/>
		<path class="st43" d="M1172.9,525.4c-29.4,0-64.2-3.3-89.7-5.8c-15-1.4-26.8-2.6-33.4-2.6c-38.3-0.3-64.2-1-73.4-7.5
			c-6.7-4.7-7.5-16.7-8.7-43.6c-0.5-10.9-1.1-24.3-2.4-39.9c5.3-24.1,23.4-54.9,112.6-54.9c26.7,0-10,75.5,14.4,77.8
			c10.2,1,84.4-71,93.3-70.4c23.8,1.8,41.8,4.6,52.1,13c9.7,7.9,14.6,22.7,16,48.1c0.3,11.1-0.5,22.1-2.6,33
			c-2.5,13.3-6.4,23.5-10.8,28.2c-2,2.1-3.2,2.1-3.8,2.1l0,0c-0.4,0-0.8-0.1-1.2-0.1l-19.5-4.3l5.8,19.1c0,0.1,0.1,0.2,0.1,0.3
			C1220.4,519.5,1211.9,525.4,1172.9,525.4z"/>
		<path class="st44" d="M639.4,251.9c3.3,38.5-21.7,77.5,15.9,103.5c26.1,18,110.4-0.3,143.5,1.8c40.9,2.6,93.3,21,126-8.7
			c28.5-26,40.5-109,12-139L915,227.2c17.8-58.5-94.2-30.2-129.8-30.7C717.1,195.4,656.5,166.3,639.4,251.9z"/>
		<path class="st43" d="M873.8,353.5c-13.6,0-28.3-2.1-42.5-4.2c-10.6-1.5-21.5-3.1-31.7-3.8c-2.1-0.1-4.3-0.2-6.8-0.2
			c-11.3,0-26,1.4-41.6,2.9c-18.3,1.7-37.2,3.5-54,3.5c-22,0-31.3-3.2-35.3-5.9c-18.8-13-17.4-28.8-13.5-55.6
			c1.8-12,3.6-24.4,2.7-37.4c8.7-41.8,27.3-50,56.3-50c10.8,0,22.7,1.2,35.3,2.5c13.5,1.4,27.5,2.8,42.2,3h1.2
			c8.4,0,27.4,17.4,40.3,16c15.7-1.7,25.8-22.4,41.6-22.4c25.5,0,33.2,5.2,35.5,8.3c2,2.8,2.1,7.3,0.2,13.6l-11.1,36.6l41.8-33.9
			c5.1,10.4,7.6,25.1,6.9,42.3c-1.1,29.2-100.6,44.2-113.6,56.1C817.4,334.2,893,353.5,873.8,353.5z"/>
		<path class="st44" d="M326.3,693.1l24.8-14.2l-16.6,20.7c34.7,17.6,80.4,2.2,118.1,2.9c33.8,0.6,85.6,18.2,117.9,10.4
			c48.5-11.8,60.6-37.5,64.6-86.6c7.3-21.2,5.3-41.7-6.1-61.5c-5.6,3.6-11.3,4.4-17.2,2.3c0-5.5,2.4-10.8,6.5-14.5
			c-36.3-29.6-180.3-18.8-224.1-13.2c-51.8,6.7-51.8,6.7-69,59.7C318.7,619.6,312.5,673.4,326.3,693.1z"/>
		<path class="st43" d="M551.3,703.1c-15.5,0-33.8-3.2-51.6-6.3c-16.9-3-32.9-5.8-46.8-6h-2.7c-12.1,0-24.9,1.4-37.2,2.8
			s-24.9,2.8-36.6,2.8c-5.2,0-10.4-0.3-15.5-1c-2.2-0.3-3.8-2.4-3.5-4.6c0.1-0.7,0.4-1.4,0.8-2l0,0c1.2-1.5,1.2-3.7-0.1-5.2
			l-10.6-12.4c-1.3-1.5-3.4-1.9-5.1-0.9l-5.5,3.2c-1.9,1.1-4.4,0.5-5.5-1.4c-0.3-0.5-0.5-1-0.5-1.5c-3-20.3,0.2-51.3,5.6-68.1
			c7.6-23.6,11.8-36.6,18-42c6-5.2,18.5-6.8,41.3-9.7c36.1-4.3,72.4-6.5,108.8-6.6c52,0,79.5,5.3,94,10.6c1.9,0.7,3,2.7,2.5,4.7
			c-0.6,2.4-0.9,4.9-0.9,7.3v5.4c0,1.7,1.1,3.2,2.7,3.8l5,1.8c3.3,1.2,6.9,1.9,10.4,1.9c0.7,0,1.4,0,2-0.1c1.8-0.1,3.5,1,4.1,2.7
			c4.5,13,4.4,26.2-0.4,39.9l-0.3,0.9c-0.1,0.3-0.2,0.7-0.2,1l-0.1,1c-4.1,49.6-78.8,7.5-117.9,17
			C501,643.4,557.7,703.1,551.3,703.1z"/>
		<path class="st44" d="M326.5,519.9c18.6,25.4,246.9,29,275.4,11.9c44.7-26.9,47.8-123.7,16-150.7c-26.6-22.6-66.3-12-100.1-11.5
			c-37.8,0.6-116.8-18.8-149.6-7.6C332.1,374.4,296.6,479,326.5,519.9z"/>
		<path class="st43" d="M494.8,530.6c-36.6,0-74.4-1.9-103.5-5.2c-45.8-5.2-54.5-11.8-55.4-12.6c-11.4-15.8-11.8-48.1-1-82.4
			c7.8-24.8,23.1-52.4,37.2-57.2c5.5-1.9,13.8-2.9,24.4-2.9c19,0,42.3,3,64.9,5.9c20.6,2.6,40,5.1,54.7,5.1h2
			c8.1-0.1,16.5-0.8,24.6-1.5c8.9-0.7,18.2-1.5,26.8-1.5c18.8,0,31.3,3.6,40.8,11.6c12.1,10.3-40.3,44.3-42.6,73
			c-2.5,30.4,44.8,48.7,28.2,58.7C590,525.3,558.2,530.6,494.8,530.6L494.8,530.6z"/>
		<path class="st44" d="M324.4,342.6c5-3.9,11.9-4.7,17.6-1.9c0.9,4.8-0.5,9.8-3.8,13.4c44.6,18.6,128.3,3.1,177.9,5.7
			c70.9,3.8,126.4-0.9,121.2-94.3c-4.2-73.6-43.5-71.3-105.3-70.2c-41,0.7-146.3-19.7-180.2,0l20,22.6l-30.2-14.1
			C323.2,229.4,310.7,313.5,324.4,342.6z"/>
		<path class="st43" d="M418.9,314.3c-20.7,0-52.5,35.8-65.1,32.6c0.3-2.8,0.2-5.5-0.3-8.3l-1.1-6.1l-5.7-2.5
			c-3.8-1.8-8-2.7-12.2-2.7c-0.9,0-1.7,0-2.6,0.1c-2.4-13.1-2.2-32.8,0.6-54c2.9-21.4,8.1-41.7,13.8-54.4l20.4,9.5l13.7-18.4
			l-8.4-9.5c8.1-1.5,18.5-2.3,31.1-2.3c23.4,0,50.8,2.6,74.9,4.9c20.6,2,38.4,3.7,51.6,3.7h2.5l4-0.1c7-0.1,13.6-0.2,19.9-0.2
			c46,0,66.5,5.6,69.6,59.5c1.7,30.6-24.9,46-36.8,58.7S577.8,349,544,349c-7.7,0-16.3-0.3-27.2-0.9c-4.1-0.2-8.5-0.3-13.5-0.3
			c-14.3,0-30,0.9-46.7,1.8C439,350.7,436.2,314.3,418.9,314.3z"/>
		<path class="st44" d="M633.4,132.5c-0.9,68.5,54,48.8,102.2,49.2c44,0.4,125.2,23.4,164.7,6.8c40.3-16.9,72.5-94.7,46.4-137.7
			c-14.4-23.8-115.9-54.6-108-11C804.9,3.8,739.6-5.8,691.1,13.5C632.2,36.9,649.1,78.2,633.4,132.5z"/>
		<path class="st43" d="M861.8,182.8c-21.3,0-46-3.5-69.8-6.9c-20.8-3-40.5-5.8-56.3-5.9h-1.6c-9,0-18.1,0.6-26.9,1.2
			c-8.3,0.6-16.2,1.1-23.5,1.1l0,0c-15.4,0-24.8-2.5-30.3-8.1s-8.4-15.7-8.4-30c4.4-15.7,6.3-30.3,7.9-43.2
			c4.2-32.6,6.7-52.3,42.4-66.5c15.6-6,32.2-9,48.8-8.9c34.7,0,66.9,12.1,86,32.3l27,28.7l-7-38.8c-0.2-1.1-0.6-3.8,0.4-5
			c1.2-1.5,5.6-3.2,13.8-3.2c27.6,0,36.9,37.2,42.9,47c9.5,15.7,39.7,19.4,31.6,44.6c-8.7,26.6-26,49.4-43.1,56.5
			C887.8,181,876.3,182.8,861.8,182.8z"/>
		<path class="st44" d="M947.5,132.5c-0.1,8.6,0,34.4,9.3,42.6c5.8-10.4,13.9-15.3,24.2-14.6c-1,8.2-4.6,15.8-10.4,21.7
			c41.8,14.6,263.3,14.5,259-17.5c48.8,12.9,41.4-109.8,14.9-134.5c-15.5-14.4-64.5-13.3-83.1-15.7c-53.3-6.8-94.9-22-124.5,23.2
			C953.9-21.1,964.8,72.8,947.5,132.5z"/>
		<path class="st43" d="M1081.8,179.8c-37.1,0-71.6-2.1-92.4-5.4c1.6-4,2.7-8.3,3.2-12.6l1.4-12.2l-12.2-0.9c-1-0.1-1.9-0.1-2.9-0.1
			c-6.6-0.1-13,1.8-18.5,5.3c-1-6.6-1.4-13.2-1.3-19.8c3.8-13.5,6.2-28.2,8.5-42.4c6.1-36.8,11.2-60.9,26.3-60.9
			c5.9,0,16.9,2.9,36.1,16.5l9.9,7l6.7-10.2c12-18.4,26.1-25.9,48.7-25.9c12.3,0,26.4,2.2,41.2,4.5c7.5,1.2,15.2,2.4,23.3,3.4
			c4.7,0.6,10.9,1,18,1.4c17.4,1.1,49.9,3,58.7,11.2c5.5,5.1,12.5,21,15.6,45.1c3,22.4,1.5,44.7-3.8,58.1c-4.7,12-10.1,12-11.9,12
			c-1.3,0-2.6-0.2-3.9-0.6l-16.9-4.5l2,15c-2.9,2-13.2,7.1-45.1,11.1C1148,178.1,1115.7,179.8,1081.8,179.8z"/>
		<path class="st44" d="M1267.6,251.9c3,34.9-28.3,101,23.5,89.8c-29.2,35.6,57,13.3,72.7,13.5c31.9,0.4,62.9,3.4,94.7,4.7
			c67.2,2.7,146-10.8,123.3-108c-18.7-79.8-88-55.4-152.4-55.2C1358.9,196.9,1285.4,162.7,1267.6,251.9z"/>
		<path class="st43" d="M1304.3,350.2c-2,0-3.6-0.1-4.8-0.2c0.2-0.3,0.4-0.6,0.7-0.9l21.4-26l-32.9,7.2c-2.6,0.6-5.3,0.9-8,1
			c-2,0-4.6-0.3-5.6-1.5c-4.5-5.3-1.2-26.2,1-40c2-12.7,4.1-25.8,3.5-37.1c8.8-42,30.1-50.5,61.5-50.5c12.3,0,25.7,1.4,39.9,2.9
			c15.5,1.6,31.6,3.3,47.8,3.3h0.8c12.7,0,25.5-1,37.9-1.9c12.2-0.9,19.5,37.6,30.4,37.6c35.1,0,62.9-31,72.7,10.5
			c6.7,28.8,4.2,51-7.7,66c-14.7,18.5-44.8,28-89.3,28c-4.6,0-9.5-0.1-14.4-0.3c-12.5-0.5-25.1-1.3-37.3-2
			c-18.8-1.2-38.2-2.4-57.7-2.6h-0.4c-4.5,0-11.3,1-20.7,2.5C1330.7,347.9,1315.5,350.2,1304.3,350.2z"/>
		<path class="st44" d="M1261.6,132.5c-0.4,29.8,7.5,58.2,42.5,45.2c-23.8,20.9,50.2,4.1,59.8,4c41.5-0.4,82.6,7.6,123.8,7.7
			c69.3,0.3,133.4-83.6,79.2-148.9c-22-26.5-65.9-23.8-97.7-26.6c-26.7-3-53.5-4.9-80.4-5.8c-5.4,10.1-13,19-22.2,25.9
			c-34.9,1.2-38.7-42-80.3-6.5C1259.5,50.3,1270.3,102.4,1261.6,132.5z"/>
		<path class="st43" d="M1300,166.7c-3.7,1.5-7.6,2.3-11.6,2.5l0,0c-4.3,0-6.4-1.5-7.7-2.9c-2.8-2.9-7.5-10.9-7.4-32.2
			c3-11.3,3.7-24.3,4.4-38c1.2-23.6,2.5-48.1,16.2-59.7c8.7-7.4,15.8-11.2,20.9-11.2c4.3,0,8.3,2.7,14.6,7
			c8.6,6,19.4,13.5,35.8,13.5h1.8l3.7-0.1l3-2.2c8.5-6.4,15.9-14.3,21.7-23.3c24.2,0.9,48.6,2.8,72.6,5.4h0.2
			c5.7,0.5,11.6,0.9,17.8,1.2c26.8,1.5,57.1,3.2,72,21.2c25.8,31.2,17.6,61.6,10.3,77c-14.6,31.1-47.6,52.7-80.2,52.7h-0.3
			c-19.2-0.1-41.1-32.6-60.2-34.4c-20.2-1.9-39.2,26.6-60.2,26.6h-3.6c-2.9,0-7.2,0.7-16.1,2.1c-11.5,1.8-27.2,4.4-37,4.4
			c-1.6,0.1-3.1,0-4.7-0.3c2.2,1,3.9,2.8,4.6,5.2c0.5,1.3,0.6,2.6,0.5,4L1300,166.7z"/>
		<path class="st44" d="M1624.7,188.5c-15.3,2.7-25.8,10.6-31.4,23.8c4.6,5,9.8,7,15.7,5.9c2.3-6.3,0.2-12.3-6.2-17.9
			c6.5,5.6,8.5,11.6,6.2,17.9c-5.9,1.1-11.1-0.9-15.7-5.9c-10.2,22.9-21.7,69.8-17.6,93.7c-0.4-2.5,22.2,65.2,23.6,49.3
			c0.8-9.4,247.4,20.6,269.9-6.8c-5.6-1.4-10.8-3.8-15.5-7.2c28.8,43.6,39.5-114.6,17.2-80.5c7.6-4.3,16.5-6,25.2-4.6
			C1890.9,152.4,1693.7,200.8,1624.7,188.5z"/>
		<path class="st43" d="M1739,290.9c-36,0-28,55.4-62.8,53.4c-26-1.4-48.4-2.7-62.4-2.7c-3.9,0-7.8,0.1-11.6,0.5
			c-2.7-6-6.8-16.4-13.2-34.1c-0.7-1.9-1.2-3.4-1.6-4.5c-0.1-0.2-0.2-0.5-0.3-0.7c-2.4-17.1,4-49.9,12.2-73.4
			c2.2,0.6,4.5,0.9,6.8,0.9v-13.1l14,5.1c1.1-2.9,1.6-5.9,1.6-9H1606v-0.1c4-6.7,10.1-10.8,18.8-12.7c8.7,1.4,19.2,2,33,2
			c14.4,0,30.5-0.7,47.5-1.4c18.8-0.8,38.2-1.7,57.3-1.7c74.4,0,111.4,13.6,119.9,45.2c-2.4,0.3-4.7,0.9-7,1.5l-16.4,4.9l10.2,13.1
			c1.4,3.3,2.9,17.4,0.6,38.1c-2.5,22.6-7.5,33.9-9.6,35.9l-10.1,6.5C1841,346.6,1772.1,290.9,1739,290.9z"/>
		<path class="st44" d="M1624.7,362.1c-37,10.9-75.5,119.9-41.7,157.8c22.7,25.5,227.3,28.9,259.7,15.7
			c21.6-8.8,27.2-13.3,38.3-34.8c18.8-36.2-2.5-38-3.9-61.4c-1.6-26.3,21.2-29.7-1.8-58.7C1843.4,340.6,1673.8,370.8,1624.7,362.1z"
			/>
		<path class="st43" d="M1737.8,497c-36.7,0-60.2,32.4-89.6,28.8c-48.9-5.8-56.2-13.4-56.5-13.8c-11.7-13.2-13.2-42.9-3.8-75.7
			c9.5-33.1,26.2-56.8,38-62.3c8.5,1,17.1,1.5,25.7,1.4c16,0,41.1,47.6,61.6,46.6c23.8-1.2,42.8-51,66.2-51c33.4,0,75.5,2.9,86.6,17
			c10,12.7,8.7,15.8,5.1,24.3c-2.7,6.4-6.5,15.2-5.7,27.8c0.6,10.7,4.4,18,7.5,23.8c4.4,8.4,7.1,13.4-2.3,31.5
			c-10,19.2-13.3,21.6-32.3,29.4c-8.2,3.3-37.9,6.7-86,6.7L1737.8,497z"/>
		<path class="st44" d="M1624.7,362.1c55.7,9.9,151.2,10.3,202.3,3.7"/>
		<path class="st43" d="M1740.9,381.9c-41.7,0-85.9-2.5-118.3-8.3l4.1-23.1c31.1,5.5,73.8,8,114,8c32.3,0,63-1.6,84.8-4.4l3,23.2
			C1805.9,380.3,1774.2,381.9,1740.9,381.9z"/>
		<path class="st44" d="M1624.7,709.2c-40.4,11.9-54.6,81.1-49,117.5c8.4,55.1,22.6,49.4,73.6,51.2c27.4,1,290.2,20.2,226.5-53.6
			c52.9,3.8,5.2-99.6-39.6-110.5C1772,698.1,1692.4,721.2,1624.7,709.2z"/>
		<path class="st43" d="M1741.3,869.1c-34.2,0-65.2-1.6-81.9-2.5c-4.5-0.2-7.7-0.4-9.8-0.5c-5.1-0.2-9.7-0.3-14.2-0.4
			c-17.6-0.4-29.2-0.7-35.3-5c-5.9-4.2-9.7-14.9-13-35.9c-2.7-17.7-0.1-42.2,6.8-62.4c4.3-12.7,14-34.5,31.6-41.3
			c15.3,2.3,30.7,3.5,46.1,3.3c18.5,0,37.4-1.2,55.8-2.4c17.7-1.1,36-2.3,53.3-2.3c21,0,37.7,1.7,52.5,5.3
			c26,6.4,56.7,56.7,53.8,80.3c-0.7,5.6-2.7,7.3-8.7,7.3l0,0c-0.6,0-1.2,0-1.9-0.1l-28.1-2l18.4,21.3c2.7,3.1,8.6,10.7,6.7,14.9
			C1871.8,850.6,1857.5,869.1,1741.3,869.1z"/>
		<path class="st44" d="M1894.5,978.8c15.4-100.3-66-89.8-135.7-88.2c-97.6,2.1-180.1-34.9-180.4,96.1c-0.2,73.3,35.4,71.1,104.8,76
			c42.2,3,165.7,19.2,167.9-28.5C1892.8,1065.4,1880.5,976.7,1894.5,978.8z"/>
		<path class="st43" d="M1767.2,1056c-24,0-49-2.2-67.3-3.7c-6.1-0.5-37.1-29.3-15.9-1.3c2.5,3.3-8.1-0.6-12-0.8
			c-61.4-4.1-82.1-5.4-82-63.5c0.1-36.5,6.8-60.5,20.4-73.2c11-10.2,27.3-14.5,54.6-14.5c11.6,0,46.4,56.4,59.7,57.2
			c15.2,0.9,8.8-53.8,25.3-53.8c3,0,6,0,8.8-0.1c5.2-0.1,10.4-0.3,15.7-0.4c9.4-0.3,19.2-0.6,28.5-0.6c27,0,56.5,2.2,70.8,18.9
			c9.3,10.8,12.4,27.6,9.6,51.1c-2.4,2.3-4.5,5.8-6,11.1c-1.5,5.8-2.6,11.7-3.4,17.6c-1.1,7.2-2.2,14.5-4,20.6
			c-1.8,6.1-3.5,8.1-4,8.6c-0.7-0.1-3.2-0.6-8.2-4.3l-17.7-13.3l-1,22.1C1838.8,1048.1,1813.1,1056,1767.2,1056z"/>
		<path class="st44" d="M1576.8,922.9l-13.6,10.5c4.3-75.3-114.9-41.4-165.7-43c-77.7-2.5-158.5-1.8-135.9,109.8
			c13.1,64.6,53.3,59.2,117,63c28,1.7,165.3,13.6,155-24.8C1579.3,1057.2,1588.3,953.9,1576.8,922.9z"/>
		<path class="st43" d="M1449.5,1054.5c-24.8,0-48.7-1.6-63-2.6c-2.8-0.2-5.3-0.4-7.2-0.5c-6.6-0.4-12.8-0.7-18.9-1
			c-53.1-2.5-77.4-3.6-87.3-52.7c-6.7-33.2-4-57.5,8.1-72.3c17.3-21.2,54.3,10.7,87.7,10.7c9.8,0,19-34.5,28.2-34.2
			c1.4,0,2.8,0.1,4.2,0.1l0,0c11.6,0,25.8-1.4,40.7-2.8c17.3-1.7,35.1-3.4,51.9-3.4c25.9,0,42.5,4.3,50.8,13.1
			c5.2,5.5,7.4,13.3,6.8,23.8l-1.5,25.6l19-14.7c2.2,24.2-1.9,60.7-13.7,77.6c-5.3,7.6-9.7,7.6-11.2,7.6l0,0
			c-2.1-0.1-4.2-0.5-6.1-1.4l-76.7-50.3l60.9,64.1c0.3,1,0.2,1.1-0.1,1.4C1520.7,1044.8,1510.2,1054.5,1449.5,1054.5z"/>
		<path class="st44" d="M1251.3,904c-4,2.9-7.6,6.3-10.8,10.1c8.3-29-227.6-42.2-256.2-25.2c-28.2,16.8-46.3,91.7-36.1,123.3
			c18.5,56.9,75.6,49.9,134.1,51.7l-1-22.2c20.6,30.4,137.2,37.5,137.4-3.2C1265.5,1040.8,1286.2,941.5,1251.3,904z"/>
		<path class="st43" d="M1160.3,1055.2c-15,0-29.9-2-44.3-6.2c-12.3-3.7-21.6-8.8-24.9-13.8l-23.3-34.3l2.3,51.1l-8.5-0.1
			c-54.9-0.7-89.2-3.2-102.2-43.2c-4.2-12.8,28.3-36.1,34.7-59.5c6.5-23.9-13.7-44.2-3.7-50.1c3.7-2.2,21.5-5.9,64.9-5.9
			c37.1,0.1,74.2,2.4,111,7c44.4,5.8,61.2,13,63.9,15.9c-1-1.5-1.3-3.4-0.8-5.2l20,10.5c4.3,8.3,6.9,18.8,7.6,30.8
			c0.9,16.7-58.7,21.3-64.9,35.6c-3.4,7.8,43.6,39.1,28.3,39.1l0,0h-1l-12.2-0.6v12.2C1207,1048.2,1187.3,1055.2,1160.3,1055.2z"/>
		<path class="st44" d="M947.5,826.6c0.4-30.8,13.9-59.7-4.5-88.8l-12.4,9.4c17.2-46.7-187.3-38.8-222.1-34.4
			c-52.8,6.7-59.4,16.5-69.3,73.2c-7.4,42.7-20.6,88.9,29.7,70.9l-12.7,19.3c44.3,15.7,110.3-0.7,158.4,2.9
			C874.4,883.7,926.1,900.2,947.5,826.6z"/>
		<path class="st43" d="M874.8,872.2c-11.2,0-23.4-1.3-36.4-2.6c-7.5-0.8-15.2-1.6-23-2.2c-5.1-0.4-10.5-0.6-16.6-0.6
			c-14.6,0-30.4,1.2-45.7,2.3c-15.5,1.1-31.5,2.3-46.5,2.3c-10.6,0.1-21.2-0.7-31.7-2.4l23.1-35L664.9,846
			c-7.7,2.8-12.3,3.3-14.9,3.3c-2.2,0-3.6-0.4-4.2-1.1c-5-6-0.3-31.5,2.8-48.3c0.7-3.9,1.5-7.8,2.1-11.8
			c4.6-26.5,8.3-41.5,15.6-49.5c6.5-7.2,18-10.9,43.5-14.1c10.9-1.4,45.8,47.8,81.5,47.8c33.5,0,59.7-49.5,82.1-46.3
			c37.5,5.3,44.9,13.4,46,15c0.4,0.5,0.6,0.8,0.1,2.2l-13.8,37.5l32.8-24.8c4.1,13.2,2.1,26.9,0,42.3c-1.4,8.8-2.3,17.7-2.7,26.6
			C924,864.3,903.7,872.3,874.8,872.2L874.8,872.2z"/>
		<path class="st44" d="M942.2,910.3c-4.7,4.8-9.4,9.5-14.3,14c10.3-48.4-190-48.6-232.5-39.8c-49.6,10.4-52.6,36.7-56.5,88.7
			c-2.9,38.6-18.7,86.6,27.7,50.9c5.2,54.4,86.5,40.5,134,40.3c22.6-0.1,57.4,5.1,77.8-3.7c38.7-16.8,23.1,17.7,29-44
			C959.5,1056.4,965.3,944.7,942.2,910.3z"/>
		<path class="st43" d="M744.3,1054.4c-55.6,0-64.6-15.9-66.1-31.4l-2-21.1l-16.8,12.9c-6.8,5.2-11.1,7.7-13.8,9
			c-0.4-6.6,1.3-19.2,2.3-27.3c1-7.4,2-15,2.5-22.4c2-26.5,3.7-43.5,9.8-55.4c4.3-8.2,12-17.4,37.4-22.7c12.3-2.6,38.9-4.2,67.8-4.2
			c75.8,0,137.2,10.6,149.5,25.8c1.6,2,1.5,3.2,1.3,4.3l-7.7,36l27.1-25l2.7-2.5c7,23,6.6,58.6-2.4,75.6c-3.9,7.4-7.4,7.4-8.6,7.4
			l0,0c-1.9,0-6.1-0.8-13-6l-16.8-12.8l-2,21c-1.3,13.3-1.6,22.3-1.6,28.4c-7.1,1-13.9,3-20.4,6c-6.5,2.8-16.3,4.2-30,4.2
			c-7.5,0-15.3-0.4-22.8-0.8c-7-0.3-13.7-0.7-19.7-0.7h-0.7c-7.8,0-16.2,0.4-25.2,0.8C765.2,1054,754.7,1054.4,744.3,1054.4z"/>
		<path class="st44" d="M588.8,888.2c-96.2-7.9-298.2-39.5-269.5,112c9.9,52.1,25.3,53.2,79.8,60.3c41.5,5.4,175.1,23.2,166.9-26.6
			c3.2-8.7,25.5,27,33.1,19.8c18.1-17.1,25.8-26.3,34.3-53.5C645.8,960.1,642.2,893.1,588.8,888.2z"/>
		<path class="st43" d="M491.6,1056.3c-33.6,0-67.1-53-86.7-55.6l-7.3,47.8c-24.1-3.1-40.1-5.2-49.2-11.4c-7-4.7-12.6-13.1-17.5-39
			c-5.8-30.7-1.9-53.8,12-70.6c19.9-24,60.4-35.7,123.9-35.7c33.4,0,66.9,3.1,96.4,5.9c8.8,0.8,17,1.6,24.7,2.2
			c12.8,1.2,22.3,6.7,29.1,16.8c6.3,9.4-34.7,21.6-34,37.2c0.6,13.9,43.3,30.1,39.3,42.9c-7,22.5-12.8,30.7-26.7,44.2
			c-2.5-2.1-5.5-5.2-7.4-7.1c-7.5-7.6-13-13-20.4-13c-5.7,0-10.8,3.6-12.7,9l-1.1,2.9l0.5,3.1c0.7,4.3-0.5,6.4-1.8,7.9
			C549.5,1047.4,537,1056.3,491.6,1056.3z"/>
		<path class="st44" d="M313.7,909.8l-14.9,9.3c16.3-49.9-127.3-27.7-157.7-28.7c-51.6-1.7-172.3-13-103.4,68.2
			c-39.2,0.2-51,72.9-15.1,89c12.9-12.9,217.4,49.3,209.2-0.3c42,14.8,76.7,12.8,63.7-36.9C327.4,1012.2,336.3,942.9,313.7,909.8z"
			/>
		<path class="st43" d="M194.1,1055.2c-27.4,0-66.1-6.7-100.3-12.6c-26.4-4.6-49.2-8.5-62.3-8.5c-2.6,0-5.3,0.2-7.9,0.6
			c-10-7.5-12.6-24.1-9.6-38c2.6-12.1,10.3-26.3,23.7-26.4l25.2-0.1l-16.3-19.2C32.8,934.8,61,926.4,64,919.9
			c5.9-12.7,11.6-19.2,28.6-19.2c12.3,0,24.6,0.5,35.4,1c4.5,0.2,8.8,0.4,12.6,0.5c0.8,0,1.6,0,2.6,0c6.7,0,16.3-0.7,28.4-1.5
			c16.8-1.2,37.8-2.6,57.6-2.6c46.7,0,56.4,8.4,58.3,11c0.5,0.6,1.5,2.1,0.1,6.4l-10,30.7l31.6-19.8c8,20.1,6.5,48.1-1.3,63
			c-3.3,6.3-7.1,9.4-11.2,9.4h-0.5l-16-0.9l-29.8,14.5c4.4,16.7,35.7,24.4,33.8,26.9c-2.8,3.6-9.1,4.4-13.9,4.4
			c-8.8,0-20.8-2.5-34.5-7.4L187,1023l33.2,26.4c0.1,0.4,0.1,0.8,0.1,1.2l0,0C220.3,1050.6,216.6,1055.2,194.1,1055.2z"/>
		<path class="st44" d="M256.5,886.4c73-9.4,86-154.7,36.9-139.6c11.6-54.6-112.7-28.6-152.3-29.9c-10.4-0.3-77.8-12.3-86.9-7.7
			c-53.4,27.4-6.3,36.1-17,52.9c-17.5,27.3-25.7-7.2-28.4,27.2C7,812.4,0.5,839,9.6,861.6c9.5-5.1,19.1-6.7,28.8-4.9
			c-1.2,7.7-5.6,13.9-13,18.5C84.7,898.8,189.3,879.1,256.5,886.4z"/>
		<path class="st43" d="M114.7,875.5c-19.4,0-45.7-0.7-68.4-6c1.7-3.4,2.9-7.1,3.5-10.9l20-11.4l-29.4-2c-7.6-1.4-15.5-1.2-23,0.8
			c-1.9-12.4-0.3-26.2,1.3-39.6c0.6-5.3,1.3-10.8,1.7-16.2c0.1-2,0.3-3.6,0.5-4.9c0.3,0,0.7,0,1,0c9.5,0,17.7-5.5,25-17
			c8.2-12.7,0.1-23.9-3.8-29.3c-1.1-1.6-3-4.2-3.3-5.3c0.3-0.8,14.1,25.7,30,17.4c0.6-0.1-9.4-31.4-7.2-31.4c12.6,0,37,3.4,54.9,5.9
			c12.7,1.8,19.5,2.7,23.2,2.8c1.1,0,2.3,0,3.5,0c9.3,0,21.3-1,35.2-2.1c16.7-1.4,29,17.7,46.3,17.7c34.5,0,51.7-14.2,54.8-10.3
			c0.8,1,2.9,3.6,1.4,10.4l-32.9,20.9l47.8-7.3c1.1-0.4,2.2-0.6,3.4-0.6c6.2,0,9.8,12.1,10.5,23.3c2.3,35.6-17.3,88-54.5,93.9
			c-12.6-1.2-25.3-1.7-38-1.6c-16.2,0-33.7,0.6-50.7,1.3C150.1,874.8,132,875.5,114.7,875.5L114.7,875.5z"/>
		<path class="st44" d="M256.5,712.8c58.5-7.5,86.2-92.7,61.3-143.1c-2.7,7.1-7.7,10.8-15,11.3c-6.4-5.5,4.6-27-0.7-30.2
			c-22.1-13.5-35.7-8.7-57.9-10.3c-43.4-3.2-90.8,2.2-134.6,1.3C71.3,541.1,48.4,528.2,22,561c-31,38.6-17.4,92.7,8.3,115.5
			c-68.7,17.3,50.7,26.6,62.8,26.8C148.1,704.1,201.6,706.9,256.5,712.8z"/>
		<path class="st43" d="M256.3,701c-51.7-5.5-108.4-39.2-166.5-40c-9.1-0.1-30.6,28.2-49.5,25.1l14.4-3.6l-16.6-14.7
			c-21.1-18.8-34-65.7-6.9-99.5c12-14.9,22-17.9,34.4-17.9c5.6,0,11.9,0.6,18.6,1.3c7.5,0.8,15.9,1.6,25.3,1.8
			c3.1,0,6.3,0.1,9.6,0.1c15.6,0,31.6-0.6,47.2-1.2s31.5-1.2,46.9-1.2c11.2,0,21.1,0.3,30.2,1c5.3,0.4,10.1,0.4,14.5,0.4h4.6
			c10.9,0,18.8,0.4,28.9,5.6c-0.2,1.1-0.5,2.3-0.6,3.3c-1.8,8.8-44.4,21.8-35.8,29.2l43.8,2.3l4.8-0.3c3.2-0.2,6.3-0.9,9.2-2
			c5.3,23,1.6,51.2-10.5,73.8C295.8,676.6,281.2,697.2,256.3,701z"/>
		<path class="st44" d="M256.5,365.8c58.1-7.5,92-104.1,55.8-152c-2.5,6.4-6.8,8.9-12.9,7.6c-3.1-6.2-3.4-13.4-0.7-19.8
			c-13.3-5.9-27.7-9-42.2-9.2c-18.1-5.1-64.9,4.4-83.6,4.4c-64.5,0.2-126.6-30-157.2,36.1C-61.8,400.1,161.3,355.5,256.5,365.8z"/>
		<path class="st43" d="M257.4,351.6c-15.1-1.5-32.5-1.7-47.6-1.7c-7.5,0-15.1,0.1-23.1,0.1s-16.4,0.1-24.8,0.1l0,0
			c-62.7,0-123.3-4.2-142.7-34.5c-11.1-17.4-8.4-44.4,8.2-80.3c13.8-29.9,33.7-36,59.2-36c12,0,25,1.5,38.8,3.1
			c15.4,1.8,31.4,3.6,47.9,3.6h0.7c7.3,0,17.4-1.2,29.1-2.6c13.2-1.6,28.2-3.3,39.6-3.3c6.5,0,9.9,0.6,11.6,1.1l1.5,0.4h1.5
			c9.9,0.1-2.5,27.6,6.9,30.8c-0.3,6,10.1,3.7,12.9,9.4l14.1-10.3l-0.1,23.2c1.9,0.4,10.6-23.6,12.4-23.6c2.4,0,4.7-0.4,7-1.1
			c8.7,20.3,7.9,48.5-3,74.3C296.5,330.7,277.8,348.4,257.4,351.6z"/>
		<path class="st44" d="M256.5,192.2c49.4-6.4,68.6-54.2,66.7-100.2c-2.4-59.2-25.1-65.8-78.2-74.6C205.2,10.8,162,7,121.8,8
			C69.9,9.2,14.1,1.5,61.1,59.8C39.6,92.6,10.4,43.1,6.9,110.6c-2.7,52,2,39.2,46.6,50.8L20,178.7
			C73.8,206.8,192.6,185.3,256.5,192.2z"/>
		<path class="st43" d="M74.3,147.7l-19-4.3c-9.7-2.2-17.5-3.4-23.7-4.4c-5.4-0.9-12.1-1.9-13.4-2.9c-2.2-2.7-1.2-20.2-0.8-26.8
			c0.3-5.6,0.1-17.7,4.6-22.2s17.2-1.3,23.7-2.7c3.8-0.8,7.3-2.1,11.2-2.4c5.6-0.5,11.6,2,17,1.1C85,81.3,85.3,60.7,84.9,51.8
			c0-1-0.2-2-0.7-2.8c-0.6-0.8-1.4-1.5-2.4-1.8c-3.9-1.9-8.2-2.9-12.5-3.1c-2.8-0.1-7.2,1.6-9.9,0.4c-2.1-0.9-7.4-8.7-5.5-10.9
			c0.1-0.1,2-2.3,13-3.6c9.6-1.1,22-1.2,35.1-1.2c6.1,0,12.5,0,18.8-0.2c4-0.1,8.2-0.1,12.3-0.1c36.4,0.2,72.7,3,108.7,8.3
			c51.4,7.5,66.3,11.6,68.4,55.9c1.5,32.3-12.1,71.8-55.2,77.4c-9.2-0.8-19.9-1.2-32.8-1.2c-16.1,0-33.4,0.6-51.7,1.2
			c-18.8,0.6-38.2,1.3-56.9,1.3c-4.3,0-9,0-13.8-0.1"/>
		<path class="st44" d="M266.7,96.5c0,0-40.9,2.3-91.4,2.3s-91.4-2.3-91.4-2.3s40.9-2.3,91.4-2.3S266.7,96.5,266.7,96.5z"/>
		<path class="st44" d="M469.3,53.8c0,0-22,1.5-49.2,1.5s-49.2-1.5-49.2-1.5s22-1.5,49.2-1.5S469.3,53.8,469.3,53.8z"/>
		<path class="st44" d="M739.9,140.5c0,0-18.6,0.8-41.6,0.8s-41.6-0.8-41.6-0.8s18.6-0.8,41.6-0.8S739.9,140.5,739.9,140.5z"/>
		<path class="st44" d="M1067.8,223.8c-13.2,1.8-26.5,2.7-39.8,2.7c-13.3,0-26.6-0.9-39.8-2.7
			C1014.6,220.2,1041.4,220.2,1067.8,223.8z"/>
		<path class="st44" d="M526.7,779.3c0,0-40.9,2.3-91.4,2.3s-91.3-2.3-91.3-2.3s40.9-2.3,91.4-2.3S526.7,779.3,526.7,779.3z"/>
		<path class="st44" d="M1734.3,582.8c0,0-24.9,2.1-55.6,2.1s-55.6-2.1-55.6-2.1s24.9-2.1,55.6-2.1S1734.3,582.8,1734.3,582.8z"/>
		<path class="st44" d="M1826.8,256.1c-16.7,1.9-33.5,2.9-50.4,2.9c-16.8,0-33.7-1-50.4-2.9C1759.5,252.2,1793.3,252.2,1826.8,256.1
			z"/>
		<path class="st44" d="M1187.3,481.5c-26.1,2.7-52.4,2.7-78.5,0C1134.9,478.8,1161.2,478.8,1187.3,481.5z"/>
		<path class="st3" d="M1774.3,497.4c10.7-14.2,16.5-31.4,16.5-49.2c0-28.4-14.7-53.5-37.3-69.2c10.7-14.2,16.5-31.4,16.5-49.2
			c0-35.6-23.1-66.1-56.2-79.3c3.5-9.2,5.3-18.9,5.3-28.8c0-47.6-41.4-86.2-92.5-86.2c-1,0-2,0-3,0.1c-10.4-37-46.5-64.4-89.5-64.4
			c-13.6,0-27.1,2.8-39.6,8.3c-16.9-17.7-41.6-28.9-69.1-28.9c-36.9,0-68.7,20.1-83.5,49.2c-44.6,3.2-80.3,35.9-84.8,77.2
			c-31.7,13.7-53.7,43.6-53.7,78.2c0,4.4,0.4,8.8,1.1,13.2c-33.2,13.1-56.6,43.7-56.6,79.5c0,33.5,20.4,62.4,50.3,76.7
			c-5.7,11.3-8.7,23.8-8.7,36.5c0,40,29.2,73.6,68.9,83.3c-1.2,5.6-1.8,11.3-1.8,17c0,47.6,41.4,86.2,92.5,86.2
			c16.6,0.1,33-4.2,47.6-12.3c17,18.5,42.2,30.3,70.4,30.3c18.5,0.1,36.7-5.2,52.3-15.1c17.9,16.5,41.3,25.6,65.6,25.4
			c33.1,0,62.1-16.2,78.4-40.5c16.3,11.4,35.8,17.5,55.7,17.4c51.1,0,92.5-38.6,92.5-86.2C1811.7,538.3,1797,513.1,1774.3,497.4z"/>
		<rect x="1430.5" y="490.1" class="st45" width="101.2" height="101.2"/>
		<ellipse class="st45" cx="1506" cy="498.9" rx="21.2" ry="35.2"/>
		<ellipse class="st45" cx="1460.7" cy="485" rx="21.2" ry="33"/>
		<rect x="1450.1" y="273" class="st45" width="60.4" height="198"/>
		<path class="st45" d="M1479.6,273h27.2c0,0,1.5-95.4,77.1-58.7c0,0,147.3,60.9-14.3,148.9c0,0-34.8,96.8-58.9,110"/>
		<path d="M1480.3,443.9c-17.1,0-31,13.5-31,30.1s13.9,30.1,31,30.1"/>
		<path class="st45" d="M1480.3,273h-27.2c0,0-1.5-95.4-77.1-58.7c0,0-147.3,60.9,14.3,148.9c0,0,34.8,96.8,58.9,110"/>
		<path class="st46" d="M1435.8,278.2c0,0-40.8,8.8-48.3,67.5"/>
		<path class="st47" d="M1357.2,433.7c0,0,52.9,30.8,83.1,14.7"/>
		<path class="st47" d="M1367.8,461.5c0,0,48.3,10.3,72.5-4.4"/>
		<path class="st47" d="M1373.8,489.4c0,0,55.9-8.8,71-27.9"/>
		<path class="st45" d="M1430,594.7c0,0-23.7-29.7-20.7-62c0,0,0.2-45.9,33.8-64.4"/>
		<path d="M1479.6,443.9c17.1,0,31,13.5,31,30.1s-13.9,30.1-31,30.1"/>
		<path class="st46" d="M1524.2,278.2c0,0,40.8,8.8,48.3,67.5"/>
		<path class="st47" d="M1602.7,433.7c0,0-52.9,30.8-83.1,14.7"/>
		<path class="st47" d="M1592.1,461.5c0,0-48.3,10.3-72.5-4.4"/>
		<path class="st47" d="M1586.1,489.4c0,0-55.9-8.8-71-27.9"/>
		<path class="st45" d="M1529.4,594.8c0,0,24.2-29.8,21.2-62.1c0,0-0.2-45.9-33.7-64.4"/>
		<ellipse class="st48" cx="1448.6" cy="342" rx="30.2" ry="46.9"/>
		<ellipse cx="1449.3" cy="363.2" rx="18.9" ry="25.7"/>
		<ellipse class="st48" cx="1510.6" cy="342" rx="30.2" ry="46.9"/>
		<ellipse cx="1510.6" cy="363.2" rx="18.9" ry="25.7"/>
		<ellipse class="st3" cx="1450.9" cy="375" rx="8.3" ry="12.5"/>
		<ellipse class="st3" cx="1509.8" cy="375" rx="8.3" ry="12.5"/>
		<ellipse class="st3" cx="1443.3" cy="359.6" rx="3.8" ry="4.4"/>
		<ellipse class="st3" cx="1517.3" cy="359.6" rx="3.8" ry="4.4"/>
		<rect x="1430" y="588.5" class="st45" width="99.2" height="6.2"/>
		<line class="st49" x1="1371.2" y1="74.2" x2="1397.5" y2="96.6"/>
		<line class="st49" x1="1441.4" y1="74.2" x2="1415.1" y2="96.6"/>
		<ellipse class="st48" cx="1450.2" cy="130.2" rx="24.9" ry="23.8"/>
		<path class="st3" d="M1441.4,128.8c0-7,6.2-12.6,13.9-12.6s18.3,7.1,18.3,14"/>
		<ellipse class="st50" cx="1448" cy="137.2" rx="9.5" ry="12.6"/>
		<path class="st3" d="M1442.9,134.4c0.2-3.2,3-5.7,6.2-5.5c3,0.2,5.3,2.5,5.5,5.5"/>
		<ellipse class="st3" cx="1445.1" cy="140.7" rx="2.2" ry="2.1"/>
		<ellipse class="st48" cx="1368.3" cy="128.8" rx="24.9" ry="23.8"/>
		<path class="st3" d="M1377.1,127.4c0-7-6.2-12.6-13.9-12.6s-18.3,7-18.3,14"/>
		<ellipse class="st50" cx="1370.5" cy="135.8" rx="9.5" ry="12.6"/>
		<path class="st3" d="M1375.6,133c-0.2-3.2-3-5.7-6.2-5.5c-3,0.2-5.3,2.5-5.5,5.5"/>
		<ellipse class="st3" cx="1373.4" cy="139.3" rx="2.2" ry="2.1"/>
		<line class="st49" x1="1643.8" y1="492.4" x2="1670" y2="514.7"/>
		<line class="st49" x1="1713.6" y1="492.4" x2="1687.4" y2="514.7"/>
		<ellipse class="st48" cx="1722.3" cy="548.1" rx="24.7" ry="23.7"/>
		<path class="st3" d="M1713.6,546.7c0-6.9,6.2-12.5,13.8-12.5s18.2,7,18.2,13.9"/>
		<ellipse class="st50" cx="1720.1" cy="555" rx="9.4" ry="12.5"/>
		<path class="st3" d="M1715,552.2c0.2-3.2,2.9-5.7,6.2-5.5c2.9,0.2,5.3,2.5,5.5,5.5"/>
		<ellipse class="st3" cx="1717.2" cy="558.5" rx="2.2" ry="2.1"/>
		<ellipse class="st48" cx="1640.9" cy="546.7" rx="24.7" ry="23.7"/>
		<path class="st3" d="M1649.7,545.3c0-6.9-6.2-12.5-13.8-12.5s-18.2,7-18.2,13.9"/>
		<ellipse class="st50" cx="1643.1" cy="553.6" rx="9.4" ry="12.5"/>
		<path class="st3" d="M1648.2,550.8c-0.2-3.2-2.9-5.7-6.2-5.5c-2.9,0.2-5.3,2.5-5.5,5.5"/>
		<ellipse class="st3" cx="1646" cy="557.1" rx="2.2" ry="2.1"/>
		<path class="st44" d="M981.2,59.5l-42.5,12.9C985.3,3.3,575.2,34,488.5,32.6C341.3,30.3-3.4,14.6,193.4,127.1
			C81.6,127.3,48,228.1,150.3,250.4c36.8-17.9,620.5,68.3,597.2-0.4c120,20.4,219,17.6,181.8-51.1
			C1020.3,201.3,1046,105.3,981.2,59.5z"/>
		<path class="st43" d="M639.9,260.8c-78.3,0-188.8-9.2-286.2-17.4c-75.4-6.3-140.5-11.7-178-11.7c-7.3,0-14.9,0.2-22.4,0.9
			c-28.7-10.4-36-33.4-27.5-52.7c7.4-16.8,29.5-36.4,67.8-36.5l71.8-0.1l-46.5-26.6c-39.4-22.5,41-34.2,49.6-43.2
			c16.8-17.6,33-26.6,81.7-26.6c35.2,0,70.2,0.7,101.1,1.3c12.9,0.3,25.1,0.5,36.1,0.7c2.3,0,4.7,0,7.4,0c19.1,0,46.5-0.9,81.1-2.1
			c48.1-1.6,107.9-3.6,164.4-3.6c133.2,0,161,11.7,166.4,15.3c1.3,0.9,4.3,2.9,0.3,8.9l-28.7,42.5l90.2-27.3
			c22.7,27.9,18.7,66.5-3.8,87.2c-9.4,8.7-20.2,13-32.1,13l0,0c-0.5,0-1,0-1.5,0l-45.8-1.2l-85.1,20.1
			c12.5,23.1,101.9,33.8,96.5,37.3c-8,5-26,6.1-39.7,6.1c-25.2,0-59.2-3.5-98.4-10.2l-138.9-18.5l94.8,36.5c0.4,1.2,0.2,1.7,0.2,1.7
			l0,0C714.6,254.4,704.2,260.8,639.9,260.8z"/>
		<path class="st3" d="M405.2,228.8c-7.8-0.7-14.2-1.1-19.3-1.1c-6.8,0.1-13.7,0.6-20.5,1.5c-0.7-5.9-2.9-16-6.8-30.3
			c-3.4-12.5-5.4-21.8-5.9-27.7c-0.1-1.4,0.5-3.6,1.8-6.7c1.3-3.1,1.9-5.5,1.6-7.1c-0.3-2.3-1.5-5.7-3.6-10.1
			c-2.7-5.7-4.3-9.5-4.8-11.6c-4.9,1.1-9.2,3.8-12.2,7.8c-1.9,2.4-3.9,6.2-6.1,11.4c-2.2,5.2-4.3,9.1-6.3,11.6
			c-3.3,4.1-8.1,11-14.4,20.7c-8.3,12.7-13.3,20.4-15.2,23h-12.2c-11.5-16.2-29.2-40.4-53.4-72.8c-2.5,2.3-4,5.5-4.4,9.6
			c-3.1,27.1-6,54.5-8.8,82.3l-18.4-9.3c-5.8-3.1-12.2-4.7-18.8-4.9c10.5-6.4,16.8-14.6,18.8-24.6c0.4-7.6,0.9-15.2,1.4-22.8
			c2.5-12.2,6.1-30.9,10.8-56c6.3-2.4,15-5.9,26.2-10.7l55.2,78.1c8.3-8.4,17.5-21.1,27.6-38.1l24.8-41.6h26.8
			c1.5,11.7,4.9,31.4,10.4,59l11,56.1C391.6,218.5,396.4,223.3,405.2,228.8z"/>
		<path class="st3" d="M539.2,222.9c0,1.6-0.9,3.1-2.8,4.4c-1.9,1.3-4.1,2-6.4,1.9h-98.4V114.3c0-2.7-5.1-7.6-15.4-14.5
			c55,0,90.4,0.4,106,1.1c5.9,0.3,8,0.4,6.4,0.4c0,1.1-1.2,3.6-3.6,7.4c-2.8,4.6-4.4,7.3-4.8,8.1c-5.9-5.9-19.6-8.8-41.2-8.8
			c-9.3,0-16.1,1.1-20.2,3.2c-4.8,2.6-7.2,6.9-7.2,13c0,1.1,0.1,2.8,0.2,5.1c0.1,2.3,0.2,4,0.2,5.1v12.2c0.9,5.3,4.1,8,9.6,8
			c2.1,0,5.3-0.1,9.4-0.3c4.1-0.2,7.3-0.3,9.4-0.3c9.3,0,18.6,0.7,27.8,1.9c0,1.3-1.1,3.6-3.4,7.1c-2.7,4-4.4,6.8-5.2,8.4
			c-2.5-3.7-6.3-6.1-11.4-7c-1.5-0.3-6.7-0.4-15.6-0.6c-3.8,0-7.6-0.5-11.4-1.2c-2.7,1.6-4,3.3-4,5.3c0.1,15,1.2,29.9,3.2,44.7
			c0.3,1.9,2.3,3.7,6,5.4c3.1,1.5,6.5,2.4,10,2.5c8.1,0,20.9-0.7,38.2-2.2c2.9-0.3,8.2-3,15.8-8.2L539.2,222.9z"/>
		<path class="st3" d="M730.7,169.6c0,18.5-7.8,33.3-23.5,44.6c-15.7,11.2-36.9,16.9-63.7,16.9c-26.9,0-48.8-6.6-65.6-19.9
			c-16-12.6-24-28.2-24-46.9c0-19.7,8.3-36,24.8-48.7c17.3-13.2,40.3-19.9,68.8-19.9c1.7,0,15.4,1.8,41,5.3c2.8,0,5.4,1.3,7.8,4
			c0.3,0.8,0.1,2.4-0.6,4.8c-0.5,1.7-0.8,3.4-1,5.1c-0.1,0.8,0.2,1.6,0.6,2.3c1.9,2.7,5.9,6.2,12,10.6c6.1,4.4,10.2,7.9,12.2,10.7
			c3.4,4.7,6.3,9.7,8.6,15.1C729.9,158.7,730.8,164.1,730.7,169.6z M702.5,164.2c-0.2-4.4-0.8-8.9-2-13.2c-1.7-7.1-4-12.5-6.8-16.2
			c-0.9-1.2-2.8-2.4-5.6-3.8c-2-0.8-3.9-1.9-5.6-3.2c-0.3-4.1-0.8-8.3-1.6-12.3c-1.2-1.1-6.5-2.9-15.9-5.5
			c-9.4-2.6-15.2-3.8-17.5-3.8c-20.3,0-36.7,6.6-49.4,19.7c-10.7,11.2-16,23-16,35.6c0,12.3,4.4,24.5,13.2,36.6
			c11.6,16,27.3,24,47,24c21.7,0,37.8-6.9,48.4-20.7C698.6,191.2,702.5,178.7,702.5,164.2z"/>
		<path class="st3" d="M991,103.3c-9.3,2.8-15.1,5.9-17.2,9.2c-8.5,13.3-17.9,33-28,59.1c-12.9,33.2-20.9,53-24,59.4
			c-1.2-0.5-6.2-1.9-15-4.1c-6.9-1.7-11.5-4-13.8-6.7c-5.2-6.3-9.8-15.8-13.8-28.5c-4.8-15.1-8.5-25.1-11-30
			c-7.7,9.6-20.1,32.7-37.2,69.4h-21.8c-16.5-47.8-29.7-83.2-39.4-106.4c-1.7-4.1-5.4-8.4-11-12.9c-1.7-1.4-6.1-4.8-13.2-10.3
			c28.3-0.2,43.1,0.2,44.6,1.2c0.8-0.3,1.6-0.4,2.4-0.4c0.9-0.1,1.8,0.3,2.4,1c4,11.4,8.7,27.7,14.2,48.8
			c6.7,25.8,11.3,42.9,14,51.4c0.7,0.2,1.5-0.3,2.4-1.4c8.7-15.2,21.8-39.6,39.4-73.2c3.9,0,10.1,1.8,18.6,5.4
			c5.2,14.1,14.5,37.1,27.8,69.1c4.8-4.6,8.3-10.3,10.4-16.6c2.3-6.2,6.4-17.5,12.4-33.9c4.5-12.6,6.7-23.2,6.7-31.9
			c0.1-5.5-1-11-3-16.2c7.3-1.2,18.5-1.8,33.6-1.8C977.5,103.1,983.9,103.2,991,103.3z"/>
	</g>
	<ellipse class="st0" cx="480.1" cy="747.7" rx="86.7" ry="202.4"/>
	<path class="st0" d="M480.1,547.9c0,0-49.1-10.5-84.1,10.5c0,0-64.8-108.6-194.5-101.6c0,0-59.6,133.2,0,236.5l50.8-61.3
		c-18.8,21.1-35.8,43.8-50.8,67.8c-18,29.1-34.5,63.6-36.8,95.2c0,0,119.1,143.7,282.1,131.4"/>
	<path class="st1" d="M434.5,779.2c0,0-45.5-122.6-120.9-105.1S203.3,779.2,434.5,779.2z"/>
	<path class="st1" d="M390.7,821.2c0,0-26.3,56.1,43.8,54.3c0,0,40.3,3.5,45.5-43.8"/>
	<path class="st1" d="M422.2,831.7c0,0-283.8,14-296.1,33.3"/>
	<path class="st1" d="M322.4,602.2c0,0-47.3-124.4-120.9-145.4"/>
	<path class="st0" d="M467.8,547.9c0,0,49-10.5,84.1,10.5c0,0,64.8-108.6,194.5-101.6c0,0,59.6,133.2,0,236.5L695.6,632
		c18.8,21.1,35.8,43.8,50.8,67.8c18.1,29.1,34.5,63.6,36.8,95.2c0,0-119.1,143.7-282.1,131.4"/>
	<path class="st1" d="M569.8,821.2c0,0,26.3,56.1-43.8,54.3c0,0-40.3,3.5-45.5-43.8"/>
	<path class="st1" d="M541.4,831.7c0,0,283.8,14,296.1,33.3"/>
	<path class="st1" d="M516.1,779.2c0,0,45.5-122.6,120.9-105.1S747.3,779.2,516.1,779.2z"/>
	<path class="st1" d="M634.2,602.2c0,0,47.3-124.4,120.9-145.4"/>

		<ellipse transform="matrix(0.9766 -0.2149 0.2149 0.9766 -140.8043 63.5145)" class="st0" cx="221.7" cy="679.3" rx="24.5" ry="32.4"/>

		<ellipse transform="matrix(0.9766 -0.2149 0.2149 0.9766 -127.0763 172.9476)" class="st0" cx="731.8" cy="670.9" rx="20.4" ry="28.3"/>
	<path class="st2" d="M435.4,779.2c0,0-33.2-89.5-88.2-76.7S266.7,779.2,435.4,779.2z"/>
	<path class="st2" d="M516,779.2c0,0,33.2-89.5,88.2-76.7S684.7,779.2,516,779.2z"/>
	<path class="st3" d="M638.8,736.6c0-18.5-19.5-33.6-43.5-33.6s-43.5,15-43.5,33.6"/>
	<ellipse class="st4" cx="558.5" cy="755.6" rx="28.5" ry="24.5"/>
	<path class="st3" d="M578.9,750.2c0,0-10-19.4-29.9-9.7"/>
	<path class="st5" d="M517.7,834.5l-71.6-3.2c-3.3-0.1-5.8-2.9-5.6-6.2c0-1,0.3-1.9,0.8-2.8l34.3-58c1.7-2.8,5.3-3.8,8.1-2.1
		c0.8,0.5,1.5,1.2,2.1,2l37.3,61.2c1.7,2.8,0.9,6.4-1.9,8.1C520.1,834.3,518.9,834.6,517.7,834.5z"/>
	<path class="st3" d="M312.8,736.6c0-18.5,19.5-33.6,43.5-33.6s43.5,15,43.5,33.6"/>
	<ellipse class="st4" cx="393" cy="755.6" rx="28.5" ry="24.5"/>
	<path class="st3" d="M372.6,750.2c0,0,10-19.4,29.9-9.7"/>
	<circle class="st3" cx="375.8" cy="757.3" r="3.5"/>
	<circle class="st3" cx="580.8" cy="757.3" r="3.5"/>
	<path class="st1" d="M296.1,618c0,0-49.1,17.5-71.8,57.8"/>
	<path class="st1" d="M664,618c0,0,49.1,17.5,71.8,57.8"/>
	<path class="st1" d="M420.5,849.3c0,0-273.3,50.8-290.8,77.1"/>
	<path class="st1" d="M537.9,849.3c0,0,273.3,50.8,290.8,77.1"/>
	<path class="st5" d="M516,876.4c0,36.8-17.6,66.6-39.4,66.6s-39.4-29.8-39.4-66.6"/>
</g>
</svg>
